<svg width="24" height="24" viewBox="0 0 24 24" fill="none" xmlns="http://www.w3.org/2000/svg">
<path d="M11 14H1V2H23V8" stroke="#13276F" stroke-width="2" stroke-miterlimit="10" stroke-linecap="square"/>
<path d="M4 6H5" stroke="#13276F" stroke-width="2" stroke-miterlimit="10" stroke-linecap="square"/>
<path d="M9 6H10" stroke="#13276F" stroke-width="2" stroke-miterlimit="10" stroke-linecap="square"/>
<path d="M14 6H15" stroke="#13276F" stroke-width="2" stroke-miterlimit="10" stroke-linecap="square"/>
<path d="M19 6H20" stroke="#13276F" stroke-width="2" stroke-miterlimit="10" stroke-linecap="square"/>
<path d="M4 10H5" stroke="#13276F" stroke-width="2" stroke-miterlimit="10" stroke-linecap="square"/>
<path d="M9 10H13" stroke="#13276F" stroke-width="2" stroke-miterlimit="10" stroke-linecap="square"/>
<path d="M19 22C17.9401 21.9968 16.9245 21.5744 16.1751 20.8249C15.4256 20.0755 15.0032 19.0599 15 18V15C15.0032 13.9401 15.4256 12.9245 16.1751 12.1751C16.9245 11.4256 17.9401 11.0032 19 11C20.0599 11.0032 21.0755 11.4256 21.8249 12.1751C22.5744 12.9245 22.9968 13.9401 23 15V18C22.9968 19.0599 22.5744 20.0755 21.8249 20.8249C21.0755 21.5744 20.0599 21.9968 19 22V22Z" stroke="#13276F" stroke-width="2" stroke-miterlimit="10" stroke-linecap="square"/>
<path d="M19 15V16" stroke="#13276F" stroke-width="2" stroke-miterlimit="10" stroke-linecap="square"/>
</svg>
