<svg width="24" height="21" viewBox="0 0 24 21" fill="none" xmlns="http://www.w3.org/2000/svg">
<g id="Group">
<path id="Vector" d="M1 20H2C3.1 20 4 19.1 4 18V17L1.8 15.8C1.1 15.4 1.1 14.4 1.8 14L4 13V11L6.3 10.4C7.1 10.2 7.3 9.3 6.8 8.7L4 6V1" stroke="#13276F" stroke-width="2" stroke-miterlimit="10" stroke-linecap="square"/>
<path id="Vector_2" d="M8 15L11 11V5C11 3.9 11.9 3 13 3H21C22.1 3 23 3.9 23 5V13C23 14.1 22.1 15 21 15H14H8Z" stroke="#13276F" stroke-width="2" stroke-miterlimit="10" stroke-linecap="square"/>
<path id="Vector_3" d="M15 7H19" stroke="#13276F" stroke-width="2" stroke-miterlimit="10" stroke-linecap="square"/>
<path id="Vector_4" d="M15 11H17" stroke="#13276F" stroke-width="2" stroke-miterlimit="10" stroke-linecap="square"/>
</g>
</svg>
