<svg width="19" height="17" viewBox="0 0 19 17" fill="none" xmlns="http://www.w3.org/2000/svg">
<path d="M9.89167 10.8917L7.775 8.8L7.8 8.775C9.21179 7.20592 10.2666 5.34938 10.8917 3.33333H13.3333V1.66667H7.5V0H5.83333V1.66667H0V3.325H9.30833C8.75 4.93333 7.86667 6.45833 6.66667 7.79167C5.89167 6.93333 5.25 5.99167 4.74167 5H3.075C3.68333 6.35833 4.51667 7.64167 5.55833 8.8L1.31667 12.9833L2.5 14.1667L6.66667 10L9.25833 12.5917L9.89167 10.8917ZM14.5833 6.66667H12.9167L9.16667 16.6667H10.8333L11.7667 14.1667H15.725L16.6667 16.6667H18.3333L14.5833 6.66667ZM12.4 12.5L13.75 8.89167L15.1 12.5H12.4Z" fill="#325DF4"/>
</svg>
