<svg width="32" height="32" viewBox="0 0 32 32" fill="none" xmlns="http://www.w3.org/2000/svg">
<path d="M1.65732 25.2706L13.536 2.81463C13.7733 2.36619 14.1283 1.99091 14.5629 1.72916C14.9975 1.46741 15.4953 1.3291 16.0027 1.3291C16.51 1.3291 17.0078 1.46741 17.4424 1.72916C17.877 1.99091 18.232 2.36619 18.4693 2.81463L30.348 25.2706C30.571 25.6944 30.6803 26.1687 30.6655 26.6473C30.6506 27.1259 30.5121 27.5926 30.2632 28.0017C30.0144 28.4108 29.6639 28.7485 29.2457 28.9819C28.8276 29.2153 28.3562 29.3363 27.8773 29.3333H4.12265C3.64427 29.3354 3.17348 29.2137 2.75608 28.9799C2.33868 28.7462 1.98888 28.4084 1.7407 27.9994C1.49252 27.5904 1.3544 27.1242 1.33979 26.646C1.32518 26.1678 1.43457 25.694 1.65732 25.2706V25.2706Z" stroke="#DB3A17" stroke-width="2" stroke-miterlimit="10" stroke-linecap="square"/>
<path d="M16 10.6665V18.6665" stroke="#DB3A17" stroke-width="2" stroke-miterlimit="10" stroke-linecap="square"/>
<path d="M16 25.3335C17.1046 25.3335 18 24.4381 18 23.3335C18 22.2289 17.1046 21.3335 16 21.3335C14.8954 21.3335 14 22.2289 14 23.3335C14 24.4381 14.8954 25.3335 16 25.3335Z" fill="#DB3A17"/>
</svg>
