<svg width="28" height="32" viewBox="0 0 28 32" fill="none" xmlns="http://www.w3.org/2000/svg">
<g clip-path="url(#clip0_1256_10063)">
<path d="M21.5452 6.88497C22.697 5.88312 24.48 5.99644 25.1721 7.3571C25.7556 8.50437 26.1413 9.74928 26.3058 11.0396C26.5877 13.2499 26.2078 15.4941 25.2141 17.4885C24.2205 19.4829 22.6577 21.1379 20.7235 22.2441C19.5944 22.8899 18.3683 23.3317 17.101 23.5569C15.598 23.8239 14.4337 22.4689 14.5397 20.946V20.946C14.6458 19.4231 16.0304 18.3334 17.4291 17.7218C17.6166 17.6399 17.8002 17.5476 17.979 17.4454C18.9641 16.882 19.76 16.0391 20.2661 15.0233C20.7721 14.0076 20.9656 12.8646 20.8221 11.7388C20.796 11.5345 20.7591 11.3324 20.7116 11.1334C20.3574 9.64845 20.3934 7.88682 21.5452 6.88497V6.88497Z" fill="#9DC5FF"/>
<path d="M23.2877 14.6504C24.7925 15.0536 26.3778 14.1509 26.3956 12.5931C26.4059 11.6924 26.3081 10.7903 26.102 9.90636C25.6813 8.10205 24.8221 6.42935 23.6006 5.03641C22.379 3.64347 20.8327 2.5733 19.0988 1.92069C17.3648 1.26807 15.4967 1.05316 13.6598 1.29498C11.823 1.53681 10.0741 2.22791 8.56813 3.30707C7.06217 4.38623 5.84559 5.82014 5.02616 7.48178C4.20673 9.14341 3.80974 10.9815 3.87036 12.8332C3.90006 13.7403 4.03912 14.637 4.28218 15.5044C4.70254 17.0046 6.46743 17.4661 7.81664 16.6872L7.8687 16.6571C9.18915 15.8947 9.55898 14.1725 9.5091 12.6486V12.6486C9.47884 11.7242 9.67702 10.8066 10.0861 9.97706C10.4952 9.14753 11.1025 8.43169 11.8543 7.89295C12.6061 7.35421 13.4792 7.0092 14.3962 6.88848C15.3132 6.76775 16.2458 6.87504 17.1115 7.20084C17.9771 7.52664 18.749 8.06089 19.3589 8.75628C19.9687 9.45167 20.3976 10.2867 20.6076 11.1875V11.1875C20.9539 12.6724 21.7568 14.2402 23.2296 14.6348L23.2877 14.6504Z" fill="#325DF4"/>
<path fill-rule="evenodd" clip-rule="evenodd" d="M6.68173 9.64807C8.23724 9.64807 9.49823 10.9091 9.49823 12.4646V27.4859C9.49823 29.0414 8.23724 30.3024 6.68173 30.3024C5.12622 30.3024 3.86523 29.0414 3.86523 27.4859V12.4646C3.86523 10.9091 5.12622 9.64807 6.68173 9.64807Z" fill="#325DF4"/>
</g>
<defs>
<clipPath id="clip0_1256_10063">
<rect width="28" height="32" fill="white"/>
</clipPath>
</defs>
</svg>
