<svg width="24" height="24" viewBox="0 0 24 24" fill="none" xmlns="http://www.w3.org/2000/svg">
<g clip-path="url(#clip0_4233_30496)">
<path d="M13 23H23V14.2C23 13.461 22.593 12.783 21.941 12.435L17.934 10.285" stroke="#13276F" stroke-width="2" stroke-miterlimit="10"/>
<path d="M13.0771 10.292L10.7271 11.545" stroke="#13276F" stroke-width="2" stroke-miterlimit="10"/>
<path d="M15.5 11C13.015 11 11 8.985 11 6.5V5.5C11 3.015 13.015 1 15.5 1C17.985 1 20 3.015 20 5.5V6.5C20 8.985 17.985 11 15.5 11Z" stroke="#13276F" stroke-width="2" stroke-miterlimit="10" stroke-linecap="square"/>
<path d="M4.592 17.195L2.105 18.448C1.428 18.786 1 19.479 1 20.236V23H13V20.236C13 19.478 12.572 18.786 11.894 18.447L9.407 17.194" stroke="#13276F" stroke-width="2" stroke-miterlimit="10"/>
<path d="M7 18C4.791 18 3 16.209 3 14V13C3 10.791 4.791 9 7 9C9.209 9 11 10.791 11 13V14C11 16.209 9.209 18 7 18Z" stroke="#13276F" stroke-width="2" stroke-miterlimit="10" stroke-linecap="square"/>
</g>
<defs>
<clipPath id="clip0_4233_30496">
<rect width="24" height="24" fill="white"/>
</clipPath>
</defs>
</svg>
