<svg width="337" height="339" viewBox="0 0 337 339" fill="none" xmlns="http://www.w3.org/2000/svg">
<rect x="101" y="104" width="236" height="235" fill="#1E40B6"/>
<path d="M204 237C204 254.491 199.502 271.688 190.939 286.939C182.375 302.19 170.034 314.983 155.1 324.088C140.167 333.194 123.142 338.306 105.663 338.934C88.1835 339.562 70.8361 335.685 55.2874 327.675C39.7386 319.665 26.5109 307.791 16.8749 293.194C7.23897 278.597 1.5185 261.767 0.263083 244.321C-0.992339 226.876 2.25946 209.4 9.70611 193.574C17.1528 177.747 28.544 164.102 42.7857 153.948L71.2915 193.929C63.9058 199.195 57.9983 206.272 54.1364 214.479C50.2746 222.687 48.5882 231.749 49.2393 240.797C49.8904 249.844 52.857 258.572 57.8542 266.142C62.8514 273.712 69.7113 279.87 77.7749 284.024C85.8384 288.178 94.8348 290.189 103.9 289.863C112.964 289.537 121.793 286.886 129.538 282.164C137.282 277.442 143.683 270.807 148.124 262.898C152.565 254.989 154.897 246.071 154.897 237H204Z" fill="#7198FF"/>
<circle cx="301" cy="68" r="36" fill="#EF7E2C"/>
<path d="M162 104L102 -2.86134e-06L222 7.62939e-06L162 104Z" fill="#13276F"/>
</svg>
