<svg width="24" height="23" viewBox="0 0 24 23" fill="none" xmlns="http://www.w3.org/2000/svg">
<g id="Group">
<path id="Vector" d="M7 12H5V13H7V12Z" stroke="#13276F" stroke-width="2" stroke-miterlimit="10" stroke-linecap="square"/>
<path id="Vector_2" d="M13 12H11V13H13V12Z" stroke="#13276F" stroke-width="2" stroke-miterlimit="10" stroke-linecap="square"/>
<path id="Vector_3" d="M7 17H5V18H7V17Z" stroke="#13276F" stroke-width="2" stroke-miterlimit="10" stroke-linecap="square"/>
<path id="Vector_4" d="M13 17H11V18H13V17Z" stroke="#13276F" stroke-width="2" stroke-miterlimit="10" stroke-linecap="square"/>
<path id="Vector_5" d="M19 12H17V13H19V12Z" stroke="#13276F" stroke-width="2" stroke-miterlimit="10" stroke-linecap="square"/>
<path id="Vector_6" d="M7 12H5V13H7V12Z" fill="#13276F"/>
<path id="Vector_7" d="M13 12H11V13H13V12Z" fill="#13276F"/>
<path id="Vector_8" d="M7 17H5V18H7V17Z" fill="#13276F"/>
<path id="Vector_9" d="M13 17H11V18H13V17Z" fill="#13276F"/>
<path id="Vector_10" d="M19 12H17V13H19V12Z" fill="#13276F"/>
<path id="Vector_11" d="M21 3H3C1.89543 3 1 3.89543 1 5V20C1 21.1046 1.89543 22 3 22H21C22.1046 22 23 21.1046 23 20V5C23 3.89543 22.1046 3 21 3Z" stroke="#13276F" stroke-width="2" stroke-miterlimit="10" stroke-linecap="square"/>
<path id="Vector_12" d="M6 1V4" stroke="#13276F" stroke-width="2" stroke-miterlimit="10" stroke-linecap="square"/>
<path id="Vector_13" d="M18 1V4" stroke="#13276F" stroke-width="2" stroke-miterlimit="10" stroke-linecap="square"/>
<path id="Vector_14" d="M1 8H23" stroke="#13276F" stroke-width="2" stroke-miterlimit="10" stroke-linecap="square"/>
</g>
</svg>
