<svg width="48" height="48" viewBox="0 0 48 48" fill="none" xmlns="http://www.w3.org/2000/svg">
<rect width="48" height="48" rx="24" fill="#325DF4"/>
<path d="M26.242 21.7579C25.752 21.2679 25.19 20.8799 24.583 20.5889C24.208 20.9659 24 21.4679 24 21.9999C24 22.2129 24.04 22.4149 24.102 22.6079C24.361 22.7689 24.607 22.9509 24.828 23.1719C25.583 23.9279 26 24.9319 26 25.9999C26 27.0679 25.584 28.0729 24.829 28.8289L21.829 31.8279C20.317 33.3399 17.683 33.3399 16.172 31.8279C15.416 31.0719 15 30.0679 15 28.9999C15 27.9319 15.416 26.9279 16.171 26.1719L18.275 24.0679C18.098 23.4009 18 22.7089 18 21.9999C18 21.8379 18.013 21.6769 18.023 21.5169C17.934 21.5959 17.843 21.6729 17.757 21.7579L14.757 24.7579C13.624 25.8909 13 27.3969 13 28.9999C13 30.6029 13.624 32.1089 14.757 33.2419C15.891 34.3759 17.397 34.9999 19 34.9999C20.603 34.9999 22.109 34.3759 23.243 33.2419L26.243 30.2429C27.375 29.1089 28 27.6029 28 25.9999C28 24.3969 27.375 22.8909 26.242 21.7579Z" fill="white"/>
<path d="M33.243 14.758C32.109 13.624 30.603 13 29 13C27.397 13 25.891 13.624 24.757 14.758L21.757 17.757C20.625 18.891 20 20.397 20 22C20 23.603 20.624 25.109 21.757 26.242C22.247 26.732 22.809 27.12 23.416 27.411C23.792 27.034 24 26.532 24 26C24 25.782 23.959 25.575 23.894 25.378C23.636 25.223 23.391 25.046 23.173 24.828C22.417 24.072 22 23.068 22 22C22 20.932 22.416 19.927 23.171 19.171L26.171 16.172C26.927 15.416 27.932 15 29 15C30.068 15 31.073 15.416 31.829 16.172C32.584 16.928 33 17.932 33 19C33 20.068 32.584 21.072 31.829 21.828L29.722 23.935C29.9 24.601 30 25.292 30 26C30 26.162 29.988 26.322 29.979 26.482C30.068 26.403 30.159 26.327 30.244 26.242L33.244 23.242C34.376 22.109 35 20.603 35 19C35 17.397 34.376 15.891 33.243 14.758Z" fill="white"/>
</svg>
