<svg width="20" height="20" viewBox="0 0 20 20" fill="none" xmlns="http://www.w3.org/2000/svg">
<g clip-path="url(#clip0_985_6343)">
<path d="M10 12.5C11.3807 12.5 12.5 11.3807 12.5 10C12.5 8.61929 11.3807 7.5 10 7.5C8.61929 7.5 7.5 8.61929 7.5 10C7.5 11.3807 8.61929 12.5 10 12.5Z" stroke="#325DF4" stroke-width="2" stroke-miterlimit="10" stroke-linecap="square"/>
<path d="M16.6666 9.99998C16.6656 9.51991 16.6131 9.04133 16.5099 8.57248L18.7716 6.85998L17.1049 3.97331L14.4858 5.07831C13.7765 4.42806 12.9347 3.93933 12.0183 3.64581L11.6666 0.833313H8.33327L7.98161 3.64581C7.06523 3.93933 6.22339 4.42806 5.51411 5.07831L2.89494 3.97331L1.22827 6.85998L3.48994 8.57248C3.2811 9.51269 3.2811 10.4873 3.48994 11.4275L1.22827 13.14L2.89494 16.0266L5.51411 14.9216C6.22339 15.5719 7.06523 16.0606 7.98161 16.3541L8.33327 19.1666H11.6666L12.0183 16.3541C12.9347 16.0606 13.7765 15.5719 14.4858 14.9216L17.1049 16.0266L18.7716 13.14L16.5099 11.4275C16.6131 10.9586 16.6656 10.48 16.6666 9.99998V9.99998Z" stroke="#325DF4" stroke-width="2" stroke-miterlimit="10" stroke-linecap="square"/>
</g>
<defs>
<clipPath id="clip0_985_6343">
<rect width="20" height="20" fill="white"/>
</clipPath>
</defs>
</svg>
