<svg width="207" height="48" viewBox="0 0 207 48" fill="none" xmlns="http://www.w3.org/2000/svg">
<path d="M55.79 18.5C56.72 18.5 57.525 18.655 58.205 18.965C58.895 19.275 59.425 19.715 59.795 20.285C60.165 20.855 60.35 21.53 60.35 22.31C60.35 23.08 60.165 23.755 59.795 24.335C59.425 24.905 58.895 25.345 58.205 25.655C57.525 25.955 56.72 26.105 55.79 26.105H53.675V29H51.245V18.5H55.79ZM55.655 24.125C56.385 24.125 56.94 23.97 57.32 23.66C57.7 23.34 57.89 22.89 57.89 22.31C57.89 21.72 57.7 21.27 57.32 20.96C56.94 20.64 56.385 20.48 55.655 20.48H53.675V24.125H55.655ZM70.0952 20.93V29H67.8602V28.07C67.2802 28.77 66.4402 29.12 65.3402 29.12C64.5802 29.12 63.8902 28.95 63.2702 28.61C62.6602 28.27 62.1802 27.785 61.8302 27.155C61.4802 26.525 61.3052 25.795 61.3052 24.965C61.3052 24.135 61.4802 23.405 61.8302 22.775C62.1802 22.145 62.6602 21.66 63.2702 21.32C63.8902 20.98 64.5802 20.81 65.3402 20.81C66.3702 20.81 67.1752 21.135 67.7552 21.785V20.93H70.0952ZM65.7452 27.2C66.3352 27.2 66.8252 27 67.2152 26.6C67.6052 26.19 67.8002 25.645 67.8002 24.965C67.8002 24.285 67.6052 23.745 67.2152 23.345C66.8252 22.935 66.3352 22.73 65.7452 22.73C65.1452 22.73 64.6502 22.935 64.2602 23.345C63.8702 23.745 63.6752 24.285 63.6752 24.965C63.6752 25.645 63.8702 26.19 64.2602 26.6C64.6502 27 65.1452 27.2 65.7452 27.2ZM75.1566 29.12C74.2466 29.12 73.5366 28.88 73.0266 28.4C72.5166 27.91 72.2616 27.22 72.2616 26.33V17.87H74.6016V26.195C74.6016 26.535 74.6866 26.8 74.8566 26.99C75.0366 27.17 75.2866 27.26 75.6066 27.26C75.7266 27.26 75.8466 27.245 75.9666 27.215C76.0966 27.185 76.1966 27.15 76.2666 27.11L76.3716 28.925C75.9816 29.055 75.5766 29.12 75.1566 29.12ZM85.1496 20.93L81.7446 29H79.3296L75.9396 20.93H78.3546L80.5896 26.42L82.8996 20.93H85.1496ZM89.9497 27.245C90.3697 27.245 90.7397 27.185 91.0597 27.065C91.3897 26.935 91.6947 26.735 91.9747 26.465L93.2197 27.815C92.4597 28.685 91.3497 29.12 89.8897 29.12C88.9797 29.12 88.1747 28.945 87.4747 28.595C86.7747 28.235 86.2347 27.74 85.8547 27.11C85.4747 26.48 85.2847 25.765 85.2847 24.965C85.2847 24.175 85.4697 23.465 85.8397 22.835C86.2197 22.195 86.7347 21.7 87.3847 21.35C88.0447 20.99 88.7847 20.81 89.6047 20.81C90.3747 20.81 91.0747 20.975 91.7047 21.305C92.3347 21.625 92.8347 22.095 93.2047 22.715C93.5847 23.325 93.7747 24.05 93.7747 24.89L87.8047 26.045C87.9747 26.445 88.2397 26.745 88.5997 26.945C88.9697 27.145 89.4197 27.245 89.9497 27.245ZM89.6047 22.58C89.0147 22.58 88.5347 22.77 88.1647 23.15C87.7947 23.53 87.5997 24.055 87.5797 24.725L91.5097 23.96C91.3997 23.54 91.1747 23.205 90.8347 22.955C90.4947 22.705 90.0847 22.58 89.6047 22.58ZM98.2426 29.12C97.3326 29.12 96.6226 28.88 96.1126 28.4C95.6026 27.91 95.3476 27.22 95.3476 26.33V17.87H97.6876V26.195C97.6876 26.535 97.7726 26.8 97.9426 26.99C98.1226 27.17 98.3726 27.26 98.6926 27.26C98.8126 27.26 98.9326 27.245 99.0526 27.215C99.1826 27.185 99.2826 27.15 99.3526 27.11L99.4576 28.925C99.0676 29.055 98.6626 29.12 98.2426 29.12ZM108.736 20.93V29H106.516V28.04C106.206 28.39 105.836 28.66 105.406 28.85C104.976 29.03 104.511 29.12 104.011 29.12C102.951 29.12 102.111 28.815 101.491 28.205C100.871 27.595 100.561 26.69 100.561 25.49V20.93H102.901V25.145C102.901 26.445 103.446 27.095 104.536 27.095C105.096 27.095 105.546 26.915 105.886 26.555C106.226 26.185 106.396 25.64 106.396 24.92V20.93H108.736ZM121.239 20.81C122.249 20.81 123.049 21.11 123.639 21.71C124.239 22.3 124.539 23.19 124.539 24.38V29H122.199V24.74C122.199 24.1 122.064 23.625 121.794 23.315C121.534 22.995 121.159 22.835 120.669 22.835C120.119 22.835 119.684 23.015 119.364 23.375C119.044 23.725 118.884 24.25 118.884 24.95V29H116.544V24.74C116.544 23.47 116.034 22.835 115.014 22.835C114.474 22.835 114.044 23.015 113.724 23.375C113.404 23.725 113.244 24.25 113.244 24.95V29H110.904V20.93H113.139V21.86C113.439 21.52 113.804 21.26 114.234 21.08C114.674 20.9 115.154 20.81 115.674 20.81C116.244 20.81 116.759 20.925 117.219 21.155C117.679 21.375 118.049 21.7 118.329 22.13C118.659 21.71 119.074 21.385 119.574 21.155C120.084 20.925 120.639 20.81 121.239 20.81ZM134.915 20.93V29H132.68V28.07C132.1 28.77 131.26 29.12 130.16 29.12C129.4 29.12 128.71 28.95 128.09 28.61C127.48 28.27 127 27.785 126.65 27.155C126.3 26.525 126.125 25.795 126.125 24.965C126.125 24.135 126.3 23.405 126.65 22.775C127 22.145 127.48 21.66 128.09 21.32C128.71 20.98 129.4 20.81 130.16 20.81C131.19 20.81 131.995 21.135 132.575 21.785V20.93H134.915ZM130.565 27.2C131.155 27.2 131.645 27 132.035 26.6C132.425 26.19 132.62 25.645 132.62 24.965C132.62 24.285 132.425 23.745 132.035 23.345C131.645 22.935 131.155 22.73 130.565 22.73C129.965 22.73 129.47 22.935 129.08 23.345C128.69 23.745 128.495 24.285 128.495 24.965C128.495 25.645 128.69 26.19 129.08 26.6C129.47 27 129.965 27.2 130.565 27.2ZM141.986 20.81C142.986 20.81 143.791 21.11 144.401 21.71C145.021 22.31 145.331 23.2 145.331 24.38V29H142.991V24.74C142.991 24.1 142.851 23.625 142.571 23.315C142.291 22.995 141.886 22.835 141.356 22.835C140.766 22.835 140.296 23.02 139.946 23.39C139.596 23.75 139.421 24.29 139.421 25.01V29H137.081V20.93H139.316V21.875C139.626 21.535 140.011 21.275 140.471 21.095C140.931 20.905 141.436 20.81 141.986 20.81ZM155.582 20.93V29H153.362V28.04C153.052 28.39 152.682 28.66 152.252 28.85C151.822 29.03 151.357 29.12 150.857 29.12C149.797 29.12 148.957 28.815 148.337 28.205C147.717 27.595 147.407 26.69 147.407 25.49V20.93H149.747V25.145C149.747 26.445 150.292 27.095 151.382 27.095C151.942 27.095 152.392 26.915 152.732 26.555C153.072 26.185 153.242 25.64 153.242 24.92V20.93H155.582ZM165.94 20.93V29H163.705V28.07C163.125 28.77 162.285 29.12 161.185 29.12C160.425 29.12 159.735 28.95 159.115 28.61C158.505 28.27 158.025 27.785 157.675 27.155C157.325 26.525 157.15 25.795 157.15 24.965C157.15 24.135 157.325 23.405 157.675 22.775C158.025 22.145 158.505 21.66 159.115 21.32C159.735 20.98 160.425 20.81 161.185 20.81C162.215 20.81 163.02 21.135 163.6 21.785V20.93H165.94ZM161.59 27.2C162.18 27.2 162.67 27 163.06 26.6C163.45 26.19 163.645 25.645 163.645 24.965C163.645 24.285 163.45 23.745 163.06 23.345C162.67 22.935 162.18 22.73 161.59 22.73C160.99 22.73 160.495 22.935 160.105 23.345C159.715 23.745 159.52 24.285 159.52 24.965C159.52 25.645 159.715 26.19 160.105 26.6C160.495 27 160.99 27.2 161.59 27.2ZM176.296 20.93V29H174.061V28.07C173.481 28.77 172.641 29.12 171.541 29.12C170.781 29.12 170.091 28.95 169.471 28.61C168.861 28.27 168.381 27.785 168.031 27.155C167.681 26.525 167.506 25.795 167.506 24.965C167.506 24.135 167.681 23.405 168.031 22.775C168.381 22.145 168.861 21.66 169.471 21.32C170.091 20.98 170.781 20.81 171.541 20.81C172.571 20.81 173.376 21.135 173.956 21.785V20.93H176.296ZM171.946 27.2C172.536 27.2 173.026 27 173.416 26.6C173.806 26.19 174.001 25.645 174.001 24.965C174.001 24.285 173.806 23.745 173.416 23.345C173.026 22.935 172.536 22.73 171.946 22.73C171.346 22.73 170.851 22.935 170.461 23.345C170.071 23.745 169.876 24.285 169.876 24.965C169.876 25.645 170.071 26.19 170.461 26.6C170.851 27 171.346 27.2 171.946 27.2ZM181.358 29.12C180.448 29.12 179.738 28.88 179.228 28.4C178.718 27.91 178.463 27.22 178.463 26.33V17.87H180.803V26.195C180.803 26.535 180.888 26.8 181.058 26.99C181.238 27.17 181.488 27.26 181.808 27.26C181.928 27.26 182.048 27.245 182.168 27.215C182.298 27.185 182.398 27.15 182.468 27.11L182.573 28.925C182.183 29.055 181.778 29.12 181.358 29.12ZM183.722 20.93H186.062V29H183.722V20.93ZM184.892 19.805C184.462 19.805 184.112 19.68 183.842 19.43C183.572 19.18 183.437 18.87 183.437 18.5C183.437 18.13 183.572 17.82 183.842 17.57C184.112 17.32 184.462 17.195 184.892 17.195C185.322 17.195 185.672 17.315 185.942 17.555C186.212 17.795 186.347 18.095 186.347 18.455C186.347 18.845 186.212 19.17 185.942 19.43C185.672 19.68 185.322 19.805 184.892 19.805Z" fill="#EDF1FA"/>
<g clip-path="url(#clip0_184_1374)">
<path d="M32.3197 10.3276C34.0475 8.82487 36.7219 8.99484 37.76 11.0358C38.6353 12.7567 39.2139 14.6241 39.4607 16.5596C39.8835 19.875 39.3136 23.2414 37.8231 26.233C36.3327 29.2246 33.9886 31.707 31.0873 33.3663C29.3936 34.335 27.5544 34.9978 25.6535 35.3355C23.3989 35.7361 21.6525 33.7035 21.8115 31.4192C21.9706 29.1349 24.0476 27.5003 26.1456 26.5829C26.4269 26.46 26.7022 26.3216 26.9704 26.1682C28.4481 25.3231 29.642 24.0588 30.4011 22.5352C31.1602 21.0115 31.4504 19.297 31.2351 17.6084C31.196 17.3019 31.1406 16.9988 31.0694 16.7002C30.5381 14.4729 30.592 11.8304 32.3197 10.3276Z" fill="#9DC5FF"/>
<path d="M34.9335 21.9756C37.1907 22.5804 39.5687 21.2265 39.5953 18.8897C39.6108 17.5386 39.4641 16.1854 39.155 14.8596C38.5239 12.1531 37.2351 9.64408 35.4028 7.55468C33.5704 5.46527 31.251 3.86001 28.6501 2.88109C26.0492 1.90217 23.247 1.5798 20.4917 1.94254C17.7364 2.30528 15.1131 3.34193 12.8542 4.96067C10.5952 6.5794 8.77034 8.73026 7.54119 11.2227C6.31205 13.7152 5.71657 16.4723 5.80749 19.2499C5.85204 20.6106 6.06064 21.9556 6.42522 23.2567C7.05577 25.5069 9.7031 26.1992 11.7269 25.0308L11.805 24.9857C13.7857 23.8422 14.3404 21.2589 14.2656 18.973C14.2202 17.5864 14.5175 16.2099 15.1311 14.9657C15.7447 13.7214 16.6557 12.6476 17.7835 11.8395C18.9112 11.0314 20.2208 10.5139 21.5963 10.3328C22.9718 10.1517 24.3707 10.3126 25.6692 10.8013C26.9676 11.29 28.1255 12.0914 29.0402 13.1345C29.955 14.1776 30.5984 15.4301 30.9134 16.7813C31.4328 19.0086 32.6372 21.3603 34.8464 21.9523L34.9335 21.9756Z" fill="#EDF1FA"/>
<path fill-rule="evenodd" clip-rule="evenodd" d="M10.0226 14.4722C12.3559 14.4722 14.2473 16.3637 14.2473 18.6969V41.2289C14.2473 43.5622 12.3559 45.4537 10.0226 45.4537C7.68934 45.4537 5.79785 43.5622 5.79785 41.2289V18.6969C5.79785 16.3637 7.68934 14.4722 10.0226 14.4722Z" fill="#EDF1FA"/>
</g>
<defs>
<clipPath id="clip0_184_1374">
<rect width="42" height="48" fill="white"/>
</clipPath>
</defs>
</svg>
