<svg width="24" height="24" viewBox="0 0 24 24" fill="none" xmlns="http://www.w3.org/2000/svg">
<g clip-path="url(#clip0_6776_41915)">
<path d="M4 13V23H13" stroke="#13276F" stroke-width="2" stroke-miterlimit="10" stroke-linecap="square"/>
<path d="M20.86 9.249L12 2L1 11" stroke="#13276F" stroke-width="2" stroke-miterlimit="10"/>
<path d="M23 15.817C23 18.183 19 22 19 22C19 22 15 18.183 15 15.817C15.0069 15.3021 15.1164 14.7939 15.3222 14.3219C15.5279 13.8499 15.8258 13.4237 16.1983 13.0683C16.5707 12.7128 17.0104 12.4353 17.4915 12.2518C17.9726 12.0684 18.4854 11.9828 19 12C19.5146 11.9828 20.0274 12.0684 20.5085 12.2518C20.9896 12.4353 21.4293 12.7128 21.8017 13.0683C22.1742 13.4237 22.4721 13.8499 22.6778 14.3219C22.8836 14.7939 22.9931 15.3021 23 15.817V15.817Z" stroke="#13276F" stroke-width="2" stroke-miterlimit="10" stroke-linecap="square"/>
<path d="M19 17C19.5523 17 20 16.5523 20 16C20 15.4477 19.5523 15 19 15C18.4477 15 18 15.4477 18 16C18 16.5523 18.4477 17 19 17Z" fill="#13276F"/>
</g>
<defs>
<clipPath id="clip0_6776_41915">
<rect width="24" height="24" fill="white"/>
</clipPath>
</defs>
</svg>
