<svg width="24" height="24" viewBox="0 0 24 24" fill="none" xmlns="http://www.w3.org/2000/svg">
<g clip-path="url(#clip0_3648_50689)">
<path d="M12 23C18.0751 23 23 18.0751 23 12C23 5.92487 18.0751 1 12 1C5.92487 1 1 5.92487 1 12C1 18.0751 5.92487 23 12 23Z" stroke="#13276F" stroke-width="2" stroke-miterlimit="10" stroke-linecap="square"/>
<path d="M12 19C12.5523 19 13 18.5523 13 18C13 17.4477 12.5523 17 12 17C11.4477 17 11 17.4477 11 18C11 18.5523 11.4477 19 12 19Z" fill="#13276F"/>
<path d="M9.85156 6.55977C11.8316 5.68477 14.3936 5.78877 15.2686 7.20477C16.1436 8.62077 15.5396 10.2678 14.0396 11.5388C12.5396 12.8098 11.9986 13.4998 11.9986 14.4998" stroke="#13276F" stroke-width="2" stroke-miterlimit="10" stroke-linecap="square"/>
</g>
<defs>
<clipPath id="clip0_3648_50689">
<rect width="24" height="24" fill="white"/>
</clipPath>
</defs>
</svg>
