<svg width="24" height="24" viewBox="0 0 24 24" fill="none" xmlns="http://www.w3.org/2000/svg">
<g clip-path="url(#clip0_4233_30511)">
<path d="M12 23C18.0751 23 23 18.0751 23 12C23 5.92487 18.0751 1 12 1C5.92487 1 1 5.92487 1 12C1 18.0751 5.92487 23 12 23Z" stroke="#13276F" stroke-width="2" stroke-miterlimit="10" stroke-linecap="square"/>
<path d="M16 17.197C15.118 17.708 14.093 18 13 18C9.686 18 7 15.314 7 12C7 8.686 9.686 6 13 6C14.092 6 15.117 6.292 15.999 6.802" stroke="#13276F" stroke-width="2" stroke-miterlimit="10" stroke-linecap="square"/>
<path d="M5 10H12" stroke="#13276F" stroke-width="2" stroke-miterlimit="10" stroke-linecap="square"/>
<path d="M5 14H12" stroke="#13276F" stroke-width="2" stroke-miterlimit="10" stroke-linecap="square"/>
</g>
<defs>
<clipPath id="clip0_4233_30511">
<rect width="24" height="24" fill="white"/>
</clipPath>
</defs>
</svg>
