<svg width="24" height="24" viewBox="0 0 24 24" fill="none" xmlns="http://www.w3.org/2000/svg">
<path d="M1 21H2C3.1 21 4 20.1 4 19V18L1.8 16.8C1.1 16.4 1.1 15.4 1.8 15L4 14V12L6.3 11.4C7.1 11.2 7.3 10.3 6.8 9.7L4 7V2" stroke="#212121" stroke-width="2" stroke-miterlimit="10" stroke-linecap="square"/>
<path d="M8 16L11 12V6C11 4.9 11.9 4 13 4H21C22.1 4 23 4.9 23 6V14C23 15.1 22.1 16 21 16H14H8Z" stroke="#212121" stroke-width="2" stroke-miterlimit="10" stroke-linecap="square"/>
<path d="M15 8H19" stroke="#212121" stroke-width="2" stroke-miterlimit="10" stroke-linecap="square"/>
<path d="M15 12H17" stroke="#212121" stroke-width="2" stroke-miterlimit="10" stroke-linecap="square"/>
</svg>
