<svg width="24" height="24" viewBox="0 0 24 24" fill="none" xmlns="http://www.w3.org/2000/svg">
<path d="M12 23C18.0751 23 23 18.0751 23 12C23 5.92487 18.0751 1 12 1C5.92487 1 1 5.92487 1 12C1 18.0751 5.92487 23 12 23Z" stroke="#325DF4" stroke-width="2" stroke-miterlimit="10" stroke-linecap="square"/>
<path d="M12 19C12.5523 19 13 18.5523 13 18C13 17.4477 12.5523 17 12 17C11.4477 17 11 17.4477 11 18C11 18.5523 11.4477 19 12 19Z" fill="#325DF4"/>
<path d="M9.85254 6.56001C11.8325 5.68501 14.3945 5.78901 15.2695 7.20501C16.1445 8.62101 15.5405 10.268 14.0405 11.539C12.5405 12.81 11.9995 13.5 11.9995 14.5" stroke="#325DF4" stroke-width="2" stroke-miterlimit="10" stroke-linecap="square"/>
</svg>
