<svg xmlns="http://www.w3.org/2000/svg" xmlns:xlink="http://www.w3.org/1999/xlink"><defs><symbol viewBox="0 0 207 48" fill="none" id="LOGO-white">
<path d="M55.79 18.5C56.72 18.5 57.525 18.655 58.205 18.965C58.895 19.275 59.425 19.715 59.795 20.285C60.165 20.855 60.35 21.53 60.35 22.31C60.35 23.08 60.165 23.755 59.795 24.335C59.425 24.905 58.895 25.345 58.205 25.655C57.525 25.955 56.72 26.105 55.79 26.105H53.675V29H51.245V18.5H55.79ZM55.655 24.125C56.385 24.125 56.94 23.97 57.32 23.66C57.7 23.34 57.89 22.89 57.89 22.31C57.89 21.72 57.7 21.27 57.32 20.96C56.94 20.64 56.385 20.48 55.655 20.48H53.675V24.125H55.655ZM70.0952 20.93V29H67.8602V28.07C67.2802 28.77 66.4402 29.12 65.3402 29.12C64.5802 29.12 63.8902 28.95 63.2702 28.61C62.6602 28.27 62.1802 27.785 61.8302 27.155C61.4802 26.525 61.3052 25.795 61.3052 24.965C61.3052 24.135 61.4802 23.405 61.8302 22.775C62.1802 22.145 62.6602 21.66 63.2702 21.32C63.8902 20.98 64.5802 20.81 65.3402 20.81C66.3702 20.81 67.1752 21.135 67.7552 21.785V20.93H70.0952ZM65.7452 27.2C66.3352 27.2 66.8252 27 67.2152 26.6C67.6052 26.19 67.8002 25.645 67.8002 24.965C67.8002 24.285 67.6052 23.745 67.2152 23.345C66.8252 22.935 66.3352 22.73 65.7452 22.73C65.1452 22.73 64.6502 22.935 64.2602 23.345C63.8702 23.745 63.6752 24.285 63.6752 24.965C63.6752 25.645 63.8702 26.19 64.2602 26.6C64.6502 27 65.1452 27.2 65.7452 27.2ZM75.1566 29.12C74.2466 29.12 73.5366 28.88 73.0266 28.4C72.5166 27.91 72.2616 27.22 72.2616 26.33V17.87H74.6016V26.195C74.6016 26.535 74.6866 26.8 74.8566 26.99C75.0366 27.17 75.2866 27.26 75.6066 27.26C75.7266 27.26 75.8466 27.245 75.9666 27.215C76.0966 27.185 76.1966 27.15 76.2666 27.11L76.3716 28.925C75.9816 29.055 75.5766 29.12 75.1566 29.12ZM85.1496 20.93L81.7446 29H79.3296L75.9396 20.93H78.3546L80.5896 26.42L82.8996 20.93H85.1496ZM89.9497 27.245C90.3697 27.245 90.7397 27.185 91.0597 27.065C91.3897 26.935 91.6947 26.735 91.9747 26.465L93.2197 27.815C92.4597 28.685 91.3497 29.12 89.8897 29.12C88.9797 29.12 88.1747 28.945 87.4747 28.595C86.7747 28.235 86.2347 27.74 85.8547 27.11C85.4747 26.48 85.2847 25.765 85.2847 24.965C85.2847 24.175 85.4697 23.465 85.8397 22.835C86.2197 22.195 86.7347 21.7 87.3847 21.35C88.0447 20.99 88.7847 20.81 89.6047 20.81C90.3747 20.81 91.0747 20.975 91.7047 21.305C92.3347 21.625 92.8347 22.095 93.2047 22.715C93.5847 23.325 93.7747 24.05 93.7747 24.89L87.8047 26.045C87.9747 26.445 88.2397 26.745 88.5997 26.945C88.9697 27.145 89.4197 27.245 89.9497 27.245ZM89.6047 22.58C89.0147 22.58 88.5347 22.77 88.1647 23.15C87.7947 23.53 87.5997 24.055 87.5797 24.725L91.5097 23.96C91.3997 23.54 91.1747 23.205 90.8347 22.955C90.4947 22.705 90.0847 22.58 89.6047 22.58ZM98.2426 29.12C97.3326 29.12 96.6226 28.88 96.1126 28.4C95.6026 27.91 95.3476 27.22 95.3476 26.33V17.87H97.6876V26.195C97.6876 26.535 97.7726 26.8 97.9426 26.99C98.1226 27.17 98.3726 27.26 98.6926 27.26C98.8126 27.26 98.9326 27.245 99.0526 27.215C99.1826 27.185 99.2826 27.15 99.3526 27.11L99.4576 28.925C99.0676 29.055 98.6626 29.12 98.2426 29.12ZM108.736 20.93V29H106.516V28.04C106.206 28.39 105.836 28.66 105.406 28.85C104.976 29.03 104.511 29.12 104.011 29.12C102.951 29.12 102.111 28.815 101.491 28.205C100.871 27.595 100.561 26.69 100.561 25.49V20.93H102.901V25.145C102.901 26.445 103.446 27.095 104.536 27.095C105.096 27.095 105.546 26.915 105.886 26.555C106.226 26.185 106.396 25.64 106.396 24.92V20.93H108.736ZM121.239 20.81C122.249 20.81 123.049 21.11 123.639 21.71C124.239 22.3 124.539 23.19 124.539 24.38V29H122.199V24.74C122.199 24.1 122.064 23.625 121.794 23.315C121.534 22.995 121.159 22.835 120.669 22.835C120.119 22.835 119.684 23.015 119.364 23.375C119.044 23.725 118.884 24.25 118.884 24.95V29H116.544V24.74C116.544 23.47 116.034 22.835 115.014 22.835C114.474 22.835 114.044 23.015 113.724 23.375C113.404 23.725 113.244 24.25 113.244 24.95V29H110.904V20.93H113.139V21.86C113.439 21.52 113.804 21.26 114.234 21.08C114.674 20.9 115.154 20.81 115.674 20.81C116.244 20.81 116.759 20.925 117.219 21.155C117.679 21.375 118.049 21.7 118.329 22.13C118.659 21.71 119.074 21.385 119.574 21.155C120.084 20.925 120.639 20.81 121.239 20.81ZM134.915 20.93V29H132.68V28.07C132.1 28.77 131.26 29.12 130.16 29.12C129.4 29.12 128.71 28.95 128.09 28.61C127.48 28.27 127 27.785 126.65 27.155C126.3 26.525 126.125 25.795 126.125 24.965C126.125 24.135 126.3 23.405 126.65 22.775C127 22.145 127.48 21.66 128.09 21.32C128.71 20.98 129.4 20.81 130.16 20.81C131.19 20.81 131.995 21.135 132.575 21.785V20.93H134.915ZM130.565 27.2C131.155 27.2 131.645 27 132.035 26.6C132.425 26.19 132.62 25.645 132.62 24.965C132.62 24.285 132.425 23.745 132.035 23.345C131.645 22.935 131.155 22.73 130.565 22.73C129.965 22.73 129.47 22.935 129.08 23.345C128.69 23.745 128.495 24.285 128.495 24.965C128.495 25.645 128.69 26.19 129.08 26.6C129.47 27 129.965 27.2 130.565 27.2ZM141.986 20.81C142.986 20.81 143.791 21.11 144.401 21.71C145.021 22.31 145.331 23.2 145.331 24.38V29H142.991V24.74C142.991 24.1 142.851 23.625 142.571 23.315C142.291 22.995 141.886 22.835 141.356 22.835C140.766 22.835 140.296 23.02 139.946 23.39C139.596 23.75 139.421 24.29 139.421 25.01V29H137.081V20.93H139.316V21.875C139.626 21.535 140.011 21.275 140.471 21.095C140.931 20.905 141.436 20.81 141.986 20.81ZM155.582 20.93V29H153.362V28.04C153.052 28.39 152.682 28.66 152.252 28.85C151.822 29.03 151.357 29.12 150.857 29.12C149.797 29.12 148.957 28.815 148.337 28.205C147.717 27.595 147.407 26.69 147.407 25.49V20.93H149.747V25.145C149.747 26.445 150.292 27.095 151.382 27.095C151.942 27.095 152.392 26.915 152.732 26.555C153.072 26.185 153.242 25.64 153.242 24.92V20.93H155.582ZM165.94 20.93V29H163.705V28.07C163.125 28.77 162.285 29.12 161.185 29.12C160.425 29.12 159.735 28.95 159.115 28.61C158.505 28.27 158.025 27.785 157.675 27.155C157.325 26.525 157.15 25.795 157.15 24.965C157.15 24.135 157.325 23.405 157.675 22.775C158.025 22.145 158.505 21.66 159.115 21.32C159.735 20.98 160.425 20.81 161.185 20.81C162.215 20.81 163.02 21.135 163.6 21.785V20.93H165.94ZM161.59 27.2C162.18 27.2 162.67 27 163.06 26.6C163.45 26.19 163.645 25.645 163.645 24.965C163.645 24.285 163.45 23.745 163.06 23.345C162.67 22.935 162.18 22.73 161.59 22.73C160.99 22.73 160.495 22.935 160.105 23.345C159.715 23.745 159.52 24.285 159.52 24.965C159.52 25.645 159.715 26.19 160.105 26.6C160.495 27 160.99 27.2 161.59 27.2ZM176.296 20.93V29H174.061V28.07C173.481 28.77 172.641 29.12 171.541 29.12C170.781 29.12 170.091 28.95 169.471 28.61C168.861 28.27 168.381 27.785 168.031 27.155C167.681 26.525 167.506 25.795 167.506 24.965C167.506 24.135 167.681 23.405 168.031 22.775C168.381 22.145 168.861 21.66 169.471 21.32C170.091 20.98 170.781 20.81 171.541 20.81C172.571 20.81 173.376 21.135 173.956 21.785V20.93H176.296ZM171.946 27.2C172.536 27.2 173.026 27 173.416 26.6C173.806 26.19 174.001 25.645 174.001 24.965C174.001 24.285 173.806 23.745 173.416 23.345C173.026 22.935 172.536 22.73 171.946 22.73C171.346 22.73 170.851 22.935 170.461 23.345C170.071 23.745 169.876 24.285 169.876 24.965C169.876 25.645 170.071 26.19 170.461 26.6C170.851 27 171.346 27.2 171.946 27.2ZM181.358 29.12C180.448 29.12 179.738 28.88 179.228 28.4C178.718 27.91 178.463 27.22 178.463 26.33V17.87H180.803V26.195C180.803 26.535 180.888 26.8 181.058 26.99C181.238 27.17 181.488 27.26 181.808 27.26C181.928 27.26 182.048 27.245 182.168 27.215C182.298 27.185 182.398 27.15 182.468 27.11L182.573 28.925C182.183 29.055 181.778 29.12 181.358 29.12ZM183.722 20.93H186.062V29H183.722V20.93ZM184.892 19.805C184.462 19.805 184.112 19.68 183.842 19.43C183.572 19.18 183.437 18.87 183.437 18.5C183.437 18.13 183.572 17.82 183.842 17.57C184.112 17.32 184.462 17.195 184.892 17.195C185.322 17.195 185.672 17.315 185.942 17.555C186.212 17.795 186.347 18.095 186.347 18.455C186.347 18.845 186.212 19.17 185.942 19.43C185.672 19.68 185.322 19.805 184.892 19.805Z" fill="#EDF1FA" />
<g clip-path="url(#LOGO-white_clip0_184_1374)">
<path d="M32.3197 10.3276C34.0475 8.82487 36.7219 8.99484 37.76 11.0358C38.6353 12.7567 39.2139 14.6241 39.4607 16.5596C39.8835 19.875 39.3136 23.2414 37.8231 26.233C36.3327 29.2246 33.9886 31.707 31.0873 33.3663C29.3936 34.335 27.5544 34.9978 25.6535 35.3355C23.3989 35.7361 21.6525 33.7035 21.8115 31.4192C21.9706 29.1349 24.0476 27.5003 26.1456 26.5829C26.4269 26.46 26.7022 26.3216 26.9704 26.1682C28.4481 25.3231 29.642 24.0588 30.4011 22.5352C31.1602 21.0115 31.4504 19.297 31.2351 17.6084C31.196 17.3019 31.1406 16.9988 31.0694 16.7002C30.5381 14.4729 30.592 11.8304 32.3197 10.3276Z" fill="#9DC5FF" />
<path d="M34.9335 21.9756C37.1907 22.5804 39.5687 21.2265 39.5953 18.8897C39.6108 17.5386 39.4641 16.1854 39.155 14.8596C38.5239 12.1531 37.2351 9.64408 35.4028 7.55468C33.5704 5.46527 31.251 3.86001 28.6501 2.88109C26.0492 1.90217 23.247 1.5798 20.4917 1.94254C17.7364 2.30528 15.1131 3.34193 12.8542 4.96067C10.5952 6.5794 8.77034 8.73026 7.54119 11.2227C6.31205 13.7152 5.71657 16.4723 5.80749 19.2499C5.85204 20.6106 6.06064 21.9556 6.42522 23.2567C7.05577 25.5069 9.7031 26.1992 11.7269 25.0308L11.805 24.9857C13.7857 23.8422 14.3404 21.2589 14.2656 18.973C14.2202 17.5864 14.5175 16.2099 15.1311 14.9657C15.7447 13.7214 16.6557 12.6476 17.7835 11.8395C18.9112 11.0314 20.2208 10.5139 21.5963 10.3328C22.9718 10.1517 24.3707 10.3126 25.6692 10.8013C26.9676 11.29 28.1255 12.0914 29.0402 13.1345C29.955 14.1776 30.5984 15.4301 30.9134 16.7813C31.4328 19.0086 32.6372 21.3603 34.8464 21.9523L34.9335 21.9756Z" fill="#EDF1FA" />
<path fill-rule="evenodd" clip-rule="evenodd" d="M10.0226 14.4722C12.3559 14.4722 14.2473 16.3637 14.2473 18.6969V41.2289C14.2473 43.5622 12.3559 45.4537 10.0226 45.4537C7.68934 45.4537 5.79785 43.5622 5.79785 41.2289V18.6969C5.79785 16.3637 7.68934 14.4722 10.0226 14.4722Z" fill="#EDF1FA" />
</g>
<defs>

</defs>
</symbol><clipPath id="LOGO-white_clip0_184_1374">
<rect width="42" height="48" fill="white" />
</clipPath><symbol viewBox="0 0 24 24" fill="none" id="arrow-left">
<path d="M23 12H3" stroke="#325DF4" stroke-width="2" stroke-miterlimit="10" />
<path d="M10 19L3 12L10 5" stroke="#325DF4" stroke-width="2" stroke-miterlimit="10" stroke-linecap="square" />
</symbol><symbol viewBox="0 0 24 24" fill="none" id="arrow-right">
<path d="M2 12H22" stroke="white" stroke-width="2" stroke-miterlimit="10" />
<path d="M15 5L22 12L15 19" stroke="white" stroke-width="2" stroke-miterlimit="10" stroke-linecap="square" />
</symbol><symbol viewBox="0 0 16 16" fill="none" id="arrow-right-short">
<path d="M8 0L6.59 1.41L12.17 7H0V9H12.17L6.59 14.59L8 16L16 8L8 0Z" fill="#325DF4" />
</symbol><symbol viewBox="0 0 24 24" fill="none" id="arrow-sm-down">
<path d="M16 10L12 14L8 10" stroke="#325DF4" stroke-width="2" stroke-miterlimit="10" stroke-linecap="square" />
</symbol><symbol viewBox="0 0 24 24" fill="none" id="c-question">
<path d="M12 23C18.0751 23 23 18.0751 23 12C23 5.92487 18.0751 1 12 1C5.92487 1 1 5.92487 1 12C1 18.0751 5.92487 23 12 23Z" stroke="#325DF4" stroke-width="2" stroke-miterlimit="10" stroke-linecap="square" />
<path d="M12 19C12.5523 19 13 18.5523 13 18C13 17.4477 12.5523 17 12 17C11.4477 17 11 17.4477 11 18C11 18.5523 11.4477 19 12 19Z" fill="#325DF4" />
<path d="M9.85254 6.56001C11.8325 5.68501 14.3945 5.78901 15.2695 7.20501C16.1445 8.62101 15.5405 10.268 14.0405 11.539C12.5405 12.81 11.9995 13.5 11.9995 14.5" stroke="#325DF4" stroke-width="2" stroke-miterlimit="10" stroke-linecap="square" />
</symbol><symbol viewBox="0 0 24 24" fill="none" id="calendar">
<path d="M7 12H5V13H7V12Z" stroke="#212121" stroke-width="2" stroke-miterlimit="10" stroke-linecap="square" />
<path d="M13 12H11V13H13V12Z" stroke="#212121" stroke-width="2" stroke-miterlimit="10" stroke-linecap="square" />
<path d="M7 17H5V18H7V17Z" stroke="#212121" stroke-width="2" stroke-miterlimit="10" stroke-linecap="square" />
<path d="M13 17H11V18H13V17Z" stroke="#212121" stroke-width="2" stroke-miterlimit="10" stroke-linecap="square" />
<path d="M19 12H17V13H19V12Z" stroke="#212121" stroke-width="2" stroke-miterlimit="10" stroke-linecap="square" />
<path d="M7 12H5V13H7V12Z" fill="#212121" />
<path d="M13 12H11V13H13V12Z" fill="#212121" />
<path d="M7 17H5V18H7V17Z" fill="#212121" />
<path d="M13 17H11V18H13V17Z" fill="#212121" />
<path d="M19 12H17V13H19V12Z" fill="#212121" />
<path d="M21 3H3C1.89543 3 1 3.89543 1 5V20C1 21.1046 1.89543 22 3 22H21C22.1046 22 23 21.1046 23 20V5C23 3.89543 22.1046 3 21 3Z" stroke="#212121" stroke-width="2" stroke-miterlimit="10" stroke-linecap="square" />
<path d="M6 1V4" stroke="#212121" stroke-width="2" stroke-miterlimit="10" stroke-linecap="square" />
<path d="M18 1V4" stroke="#212121" stroke-width="2" stroke-miterlimit="10" stroke-linecap="square" />
<path d="M1 8H23" stroke="#212121" stroke-width="2" stroke-miterlimit="10" stroke-linecap="square" />
</symbol><symbol viewBox="0 0 24 24" fill="none" id="chain">
<path d="M3.11055 13.1115L5.52918 10.6929C5.56405 11.1077 5.62948 11.5154 5.7217 11.9142L3.81745 13.8184L3.81721 13.8187C2.96873 14.6683 2.5 15.7993 2.5 17C2.5 18.2007 2.96876 19.3319 3.81845 20.1815C5.52482 21.8889 8.4754 21.8887 10.1826 20.1815L13.1825 17.1826L13.1828 17.1823C14.0314 16.3326 14.5 15.2005 14.5 14C14.5 12.799 14.03 11.6681 13.1818 10.8187L13.1816 10.8184C12.9771 10.614 12.7575 10.4418 12.5334 10.2914C12.5117 10.1931 12.5 10.0966 12.5 9.99999C12.5 9.72155 12.5755 9.45476 12.7169 9.22258C13.1415 9.4632 13.5358 9.75889 13.8884 10.1115C14.9278 11.1509 15.5 12.5298 15.5 14C15.5 15.4701 14.9278 16.8492 13.8891 17.8897L10.8895 20.8884L10.8894 20.8884C9.84916 21.9287 8.47032 22.5 7 22.5C5.52968 22.5 4.15084 21.9287 3.11055 20.8884C2.07131 19.8492 1.5 18.4704 1.5 17C1.5 15.5296 2.07131 14.1508 3.11055 13.1115Z" fill="#325DF4" stroke="#325DF4" />
<path d="M13.1105 3.11161L13.1106 3.11155C14.1508 2.07127 15.5297 1.5 17 1.5C18.4703 1.5 19.8492 2.07127 20.8894 3.11155C21.9287 4.15079 22.5 5.52962 22.5 7C22.5 8.47033 21.9287 9.84917 20.8904 10.8884C20.8904 10.8885 20.8903 10.8885 20.8903 10.8886L18.4704 13.3085C18.435 12.8938 18.3686 12.4866 18.2757 12.0884L20.1826 10.1816L20.1828 10.1813C21.0313 9.33171 21.5 8.20069 21.5 7C21.5 5.79931 21.0313 4.66829 20.1828 3.81868L20.1826 3.81845C19.3328 2.96867 18.2006 2.5 17 2.5C15.7994 2.5 14.6673 2.96865 13.8175 3.81839C13.8175 3.81841 13.8175 3.81843 13.8174 3.81845L10.8175 6.81739L10.8172 6.81768C9.96863 7.66739 9.5 8.79944 9.5 10C9.5 11.201 9.96999 12.3321 10.8194 13.1816C11.0225 13.3846 11.2418 13.5534 11.4651 13.6993C11.4878 13.8 11.5 13.8998 11.5 14C11.5 14.2786 11.4244 14.5455 11.2826 14.7777C10.8578 14.537 10.4633 14.2412 10.1106 13.8884C9.07131 12.8492 8.5 11.4704 8.5 10C8.5 8.52985 9.07217 7.15078 10.1109 6.11024L13.1105 3.11161Z" fill="#325DF4" stroke="#325DF4" />
</symbol><symbol viewBox="0 0 16 12" fill="none" id="check">
<path d="M14.3 0.3L5 9.6L1.7 6.3C1.3 5.9 0.7 5.9 0.3 6.3C-0.1 6.7 -0.1 7.3 0.3 7.7L4.3 11.7C4.5 11.9 4.7 12 5 12C5.3 12 5.5 11.9 5.7 11.7L15.7 1.7C16.1 1.3 16.1 0.7 15.7 0.3C15.3 -0.1 14.7 -0.1 14.3 0.3Z" fill="#325DF4" />
</symbol><symbol viewBox="0 0 24 24" fill="none" id="close">
<path d="M19 5L5 19" stroke="#325DF4" stroke-width="2" stroke-miterlimit="10" stroke-linecap="square" />
<path d="M19 19L5 5" stroke="#325DF4" stroke-width="2" stroke-miterlimit="10" stroke-linecap="square" />
</symbol><symbol viewBox="0 0 20 20" fill="none" id="cogwheel">
<g clip-path="url(#cogwheel_clip0_985_6343)">
<path d="M10 12.5C11.3807 12.5 12.5 11.3807 12.5 10C12.5 8.61929 11.3807 7.5 10 7.5C8.61929 7.5 7.5 8.61929 7.5 10C7.5 11.3807 8.61929 12.5 10 12.5Z" stroke="#325DF4" stroke-width="2" stroke-miterlimit="10" stroke-linecap="square" />
<path d="M16.6666 9.99998C16.6656 9.51991 16.6131 9.04133 16.5099 8.57248L18.7716 6.85998L17.1049 3.97331L14.4858 5.07831C13.7765 4.42806 12.9347 3.93933 12.0183 3.64581L11.6666 0.833313H8.33327L7.98161 3.64581C7.06523 3.93933 6.22339 4.42806 5.51411 5.07831L2.89494 3.97331L1.22827 6.85998L3.48994 8.57248C3.2811 9.51269 3.2811 10.4873 3.48994 11.4275L1.22827 13.14L2.89494 16.0266L5.51411 14.9216C6.22339 15.5719 7.06523 16.0606 7.98161 16.3541L8.33327 19.1666H11.6666L12.0183 16.3541C12.9347 16.0606 13.7765 15.5719 14.4858 14.9216L17.1049 16.0266L18.7716 13.14L16.5099 11.4275C16.6131 10.9586 16.6656 10.48 16.6666 9.99998V9.99998Z" stroke="#325DF4" stroke-width="2" stroke-miterlimit="10" stroke-linecap="square" />
</g>
<defs>

</defs>
</symbol><clipPath id="cogwheel_clip0_985_6343">
<rect width="20" height="20" fill="white" />
</clipPath><symbol viewBox="0 0 20 20" fill="none" id="door">
<g clip-path="url(#door_clip0_985_6346)">
<path d="M7.5 10H17.5" stroke="#325DF4" stroke-width="2" stroke-miterlimit="10" />
<path d="M14.1667 13.3333L17.5001 9.99996L14.1667 6.66663" stroke="#325DF4" stroke-width="2" stroke-miterlimit="10" stroke-linecap="square" />
<path d="M15.8334 3.33331V0.833313H4.16675V19.1666H15.8334V16.6666" stroke="#325DF4" stroke-width="2" stroke-miterlimit="10" stroke-linecap="square" />
</g>
<defs>

</defs>
</symbol><clipPath id="door_clip0_985_6346">
<rect width="20" height="20" fill="white" />
</clipPath><symbol viewBox="0 0 20 20" fill="none" id="exit">
<g clip-path="url(#exit_clip0_985_6346)">
<path d="M7.5 10H17.5" stroke="#325DF4" stroke-width="2" stroke-miterlimit="10" />
<path d="M14.1667 13.3333L17.5001 9.99996L14.1667 6.66663" stroke="#325DF4" stroke-width="2" stroke-miterlimit="10" stroke-linecap="square" />
<path d="M15.8334 3.33331V0.833313H4.16675V19.1666H15.8334V16.6666" stroke="#325DF4" stroke-width="2" stroke-miterlimit="10" stroke-linecap="square" />
</g>
<defs>

</defs>
</symbol><clipPath id="exit_clip0_985_6346">
<rect width="20" height="20" fill="white" />
</clipPath><symbol viewBox="0 0 24 24" fill="none" id="external">
<path d="M18 15V22H2V8H7" stroke="#325DF4" stroke-width="2" stroke-miterlimit="10" stroke-linecap="square" />
<path d="M9 16C9 13.3478 10.0536 10.8043 11.9289 8.92893C13.8043 7.05357 16.3478 6 19 6H22" stroke="#325DF4" stroke-width="2" stroke-miterlimit="10" />
<path d="M18 10L22 6L18 2" stroke="#325DF4" stroke-width="2" stroke-miterlimit="10" stroke-linecap="square" />
</symbol><symbol viewBox="0 0 264 512" id="facebook"><path d="M76.7 512V283H0v-91h76.7v-71.7C76.7 42.4 124.3 0 193.8 0c33.3 0 61.9 2.5 70.2 3.6V85h-48.2c-37.8 0-45.1 18-45.1 44.3V192H256l-11.7 91h-73.6v229" /></symbol><symbol viewBox="0 0 24 22" fill="none" id="heart">
<path d="M21.2432 2.75701C18.9002 0.414006 15.1012 0.414006 12.7582 2.75701C12.4692 3.04601 12.2182 3.35701 12.0012 3.68401C11.7842 3.35701 11.5322 3.04501 11.2442 2.75701C8.9012 0.414006 5.1022 0.414006 2.7592 2.75701C0.416203 5.10001 0.416203 8.89901 2.7592 11.242L12.0002 20.485L21.2432 11.242C23.5862 8.89901 23.5862 5.10001 21.2432 2.75701Z" stroke="#325DF4" stroke-width="2" stroke-miterlimit="10" stroke-linecap="square" />
</symbol><symbol viewBox="0 0 448 512" id="instagram"><path d="M224.1 141c-63.6 0-114.9 51.3-114.9 114.9s51.3 114.9 114.9 114.9S339 319.5 339 255.9 287.7 141 224.1 141zm0 189.6c-41.1 0-74.7-33.5-74.7-74.7s33.5-74.7 74.7-74.7 74.7 33.5 74.7 74.7-33.6 74.7-74.7 74.7zm146.4-194.3c0 14.9-12 26.8-26.8 26.8-14.9 0-26.8-12-26.8-26.8s12-26.8 26.8-26.8 26.8 12 26.8 26.8zm76.1 27.2c-1.7-35.9-9.9-67.7-36.2-93.9-26.2-26.2-58-34.4-93.9-36.2-37-2.1-147.9-2.1-184.9 0-35.8 1.7-67.6 9.9-93.9 36.1s-34.4 58-36.2 93.9c-2.1 37-2.1 147.9 0 184.9 1.7 35.9 9.9 67.7 36.2 93.9s58 34.4 93.9 36.2c37 2.1 147.9 2.1 184.9 0 35.9-1.7 67.7-9.9 93.9-36.2 26.2-26.2 34.4-58 36.2-93.9 2.1-37 2.1-147.8 0-184.8zM398.8 388c-7.8 19.6-22.9 34.7-42.6 42.6-29.5 11.7-99.5 9-132.1 9s-102.7 2.6-132.1-9c-19.6-7.8-34.7-22.9-42.6-42.6-11.7-29.5-9-99.5-9-132.1s-2.6-102.7 9-132.1c7.8-19.6 22.9-34.7 42.6-42.6 29.5-11.7 99.5-9 132.1-9s102.7-2.6 132.1 9c19.6 7.8 34.7 22.9 42.6 42.6 11.7 29.5 9 99.5 9 132.1s2.7 102.7-9 132.1z" /></symbol><symbol viewBox="0 0 16 16" fill="none" id="lock 2">
<path d="M12 6H10V4C10 3.46957 9.78929 2.96086 9.41421 2.58579C9.03914 2.21071 8.53043 2 8 2C7.46957 2 6.96086 2.21071 6.58579 2.58579C6.21071 2.96086 6 3.46957 6 4V6H4V4C4 2.93913 4.42143 1.92172 5.17157 1.17157C5.92172 0.421427 6.93913 0 8 0C9.06087 0 10.0783 0.421427 10.8284 1.17157C11.5786 1.92172 12 2.93913 12 4V6Z" fill="#636363" />
<path d="M14 7H2C1.73478 7 1.48043 7.10536 1.29289 7.29289C1.10536 7.48043 1 7.73478 1 8V15C1 15.2652 1.10536 15.5196 1.29289 15.7071C1.48043 15.8946 1.73478 16 2 16H14C14.2652 16 14.5196 15.8946 14.7071 15.7071C14.8946 15.5196 15 15.2652 15 15V8C15 7.73478 14.8946 7.48043 14.7071 7.29289C14.5196 7.10536 14.2652 7 14 7ZM8 13C7.60444 13 7.21776 12.8827 6.88886 12.6629C6.55996 12.4432 6.30362 12.1308 6.15224 11.7654C6.00087 11.3999 5.96126 10.9978 6.03843 10.6098C6.1156 10.2219 6.30608 9.86549 6.58579 9.58579C6.86549 9.30608 7.22186 9.1156 7.60982 9.03843C7.99778 8.96126 8.39991 9.00087 8.76537 9.15224C9.13082 9.30362 9.44318 9.55996 9.66294 9.88886C9.8827 10.2178 10 10.6044 10 11C10 11.5304 9.78929 12.0391 9.41421 12.4142C9.03914 12.7893 8.53043 13 8 13Z" fill="#636363" />
</symbol><symbol viewBox="0 0 28 32" fill="none" id="logo-small">
<g clip-path="url(#logo-small_clip0_1256_10063)">
<path d="M21.5452 6.88497C22.697 5.88312 24.48 5.99644 25.1721 7.3571C25.7556 8.50437 26.1413 9.74928 26.3058 11.0396C26.5877 13.2499 26.2078 15.4941 25.2141 17.4885C24.2205 19.4829 22.6577 21.1379 20.7235 22.2441C19.5944 22.8899 18.3683 23.3317 17.101 23.5569C15.598 23.8239 14.4337 22.4689 14.5397 20.946V20.946C14.6458 19.4231 16.0304 18.3334 17.4291 17.7218C17.6166 17.6399 17.8002 17.5476 17.979 17.4454C18.9641 16.882 19.76 16.0391 20.2661 15.0233C20.7721 14.0076 20.9656 12.8646 20.8221 11.7388C20.796 11.5345 20.7591 11.3324 20.7116 11.1334C20.3574 9.64845 20.3934 7.88682 21.5452 6.88497V6.88497Z" fill="#9DC5FF" />
<path d="M23.2877 14.6504C24.7925 15.0536 26.3778 14.1509 26.3956 12.5931C26.4059 11.6924 26.3081 10.7903 26.102 9.90636C25.6813 8.10205 24.8221 6.42935 23.6006 5.03641C22.379 3.64347 20.8327 2.5733 19.0988 1.92069C17.3648 1.26807 15.4967 1.05316 13.6598 1.29498C11.823 1.53681 10.0741 2.22791 8.56813 3.30707C7.06217 4.38623 5.84559 5.82014 5.02616 7.48178C4.20673 9.14341 3.80974 10.9815 3.87036 12.8332C3.90006 13.7403 4.03912 14.637 4.28218 15.5044C4.70254 17.0046 6.46743 17.4661 7.81664 16.6872L7.8687 16.6571C9.18915 15.8947 9.55898 14.1725 9.5091 12.6486V12.6486C9.47884 11.7242 9.67702 10.8066 10.0861 9.97706C10.4952 9.14753 11.1025 8.43169 11.8543 7.89295C12.6061 7.35421 13.4792 7.0092 14.3962 6.88848C15.3132 6.76775 16.2458 6.87504 17.1115 7.20084C17.9771 7.52664 18.749 8.06089 19.3589 8.75628C19.9687 9.45167 20.3976 10.2867 20.6076 11.1875V11.1875C20.9539 12.6724 21.7568 14.2402 23.2296 14.6348L23.2877 14.6504Z" fill="#325DF4" />
<path fill-rule="evenodd" clip-rule="evenodd" d="M6.68173 9.64807C8.23724 9.64807 9.49823 10.9091 9.49823 12.4646V27.4859C9.49823 29.0414 8.23724 30.3024 6.68173 30.3024C5.12622 30.3024 3.86523 29.0414 3.86523 27.4859V12.4646C3.86523 10.9091 5.12622 9.64807 6.68173 9.64807Z" fill="#325DF4" />
</g>
<defs>

</defs>
</symbol><clipPath id="logo-small_clip0_1256_10063">
<rect width="28" height="32" fill="white" />
</clipPath><symbol viewBox="0 0 24 24" fill="none" id="magnifier">
<path d="M21.9998 22L15.6558 15.656" stroke="#325DF4" stroke-width="2" stroke-miterlimit="10" stroke-linecap="square" />
<path d="M10 18C14.4183 18 18 14.4183 18 10C18 5.58172 14.4183 2 10 2C5.58172 2 2 5.58172 2 10C2 14.4183 5.58172 18 10 18Z" stroke="#325DF4" stroke-width="2" stroke-miterlimit="10" stroke-linecap="square" />
</symbol><symbol viewBox="0 0 16 16" fill="none" id="magnifier2">
<path d="M12.7 11.3C13.6 10.1 14.1 8.7 14.1 7.1C14.1 3.2 11 0 7.1 0C3.2 0 0 3.2 0 7.1C0 11 3.2 14.2 7.1 14.2C8.7 14.2 10.2 13.7 11.3 12.8L14.3 15.8C14.5 16 14.8 16.1 15 16.1C15.2 16.1 15.5 16 15.7 15.8C16.1 15.4 16.1 14.8 15.7 14.4L12.7 11.3ZM7.1 12.1C4.3 12.1 2 9.9 2 7.1C2 4.3 4.3 2 7.1 2C9.9 2 12.2 4.3 12.2 7.1C12.2 9.9 9.9 12.1 7.1 12.1Z" fill="#AFCEFD" />
</symbol><symbol viewBox="0 0 24 24" fill="none" id="menu">
<path d="M1 12H23" stroke="#325DF4" stroke-width="2" stroke-miterlimit="10" stroke-linecap="square" />
<path d="M1 5H23" stroke="#325DF4" stroke-width="2" stroke-miterlimit="10" stroke-linecap="square" />
<path d="M1 19H12" stroke="#325DF4" stroke-width="2" stroke-miterlimit="10" stroke-linecap="square" />
</symbol><symbol viewBox="0 0 24 24" fill="none" id="padlock">
<path d="M19 11H5C3.89543 11 3 11.8954 3 13V21C3 22.1046 3.89543 23 5 23H19C20.1046 23 21 22.1046 21 21V13C21 11.8954 20.1046 11 19 11Z" stroke="white" stroke-width="2" stroke-miterlimit="10" stroke-linecap="square" />
<path d="M12 19C13.1046 19 14 18.1046 14 17C14 15.8954 13.1046 15 12 15C10.8954 15 10 15.8954 10 17C10 18.1046 10.8954 19 12 19Z" stroke="white" stroke-width="2" stroke-miterlimit="10" stroke-linecap="square" />
<path d="M17 7V6C17.0131 4.68724 16.5042 3.42303 15.5853 2.48539C14.6664 1.54776 13.4128 1.01346 12.1 1H12C10.6872 0.986939 9.42303 1.4958 8.48539 2.41469C7.54776 3.33357 7.01346 4.58724 7 5.9V7" stroke="white" stroke-width="2" stroke-miterlimit="10" stroke-linecap="square" />
</symbol><symbol viewBox="0 0 24 24" fill="none" id="padlock-blue">
<path d="M19 11H5C3.89543 11 3 11.8954 3 13V21C3 22.1046 3.89543 23 5 23H19C20.1046 23 21 22.1046 21 21V13C21 11.8954 20.1046 11 19 11Z" stroke="#325DF4" stroke-width="2" stroke-miterlimit="10" stroke-linecap="square" />
<path d="M12 19C13.1046 19 14 18.1046 14 17C14 15.8954 13.1046 15 12 15C10.8954 15 10 15.8954 10 17C10 18.1046 10.8954 19 12 19Z" stroke="#325DF4" stroke-width="2" stroke-miterlimit="10" stroke-linecap="square" />
<path d="M17 7V6C17.0131 4.68724 16.5042 3.42303 15.5853 2.48539C14.6664 1.54776 13.4128 1.01346 12.1 1H12C10.6872 0.986939 9.42303 1.4958 8.48539 2.41469C7.54776 3.33357 7.01346 4.58724 7 5.9V7" stroke="#325DF4" stroke-width="2" stroke-miterlimit="10" stroke-linecap="square" />
</symbol><symbol viewBox="0 0 24 24" fill="none" id="preferences">
<path d="M12 4H23" stroke="#325DF4" stroke-width="2" stroke-miterlimit="10" stroke-linecap="square" />
<path d="M1 4H4" stroke="#325DF4" stroke-width="2" stroke-miterlimit="10" stroke-linecap="square" />
<path d="M8 1H4V7H8V1Z" stroke="#325DF4" stroke-width="2" stroke-miterlimit="10" stroke-linecap="square" />
<path d="M22 12H23" stroke="#325DF4" stroke-width="2" stroke-miterlimit="10" stroke-linecap="square" />
<path d="M1 12H14" stroke="#325DF4" stroke-width="2" stroke-miterlimit="10" stroke-linecap="square" />
<path d="M18 9H14V15H18V9Z" stroke="#325DF4" stroke-width="2" stroke-miterlimit="10" stroke-linecap="square" />
<path d="M12 20H23" stroke="#325DF4" stroke-width="2" stroke-miterlimit="10" stroke-linecap="square" />
<path d="M1 20H4" stroke="#325DF4" stroke-width="2" stroke-miterlimit="10" stroke-linecap="square" />
<path d="M8 17H4V23H8V17Z" stroke="#325DF4" stroke-width="2" stroke-miterlimit="10" stroke-linecap="square" />
</symbol><symbol viewBox="0 0 24 24" fill="none" id="preferences-white">
<path d="M12 4H23" stroke="white" stroke-width="2" stroke-miterlimit="10" stroke-linecap="square" />
<path d="M1 4H4" stroke="white" stroke-width="2" stroke-miterlimit="10" stroke-linecap="square" />
<path d="M8 1H4V7H8V1Z" stroke="white" stroke-width="2" stroke-miterlimit="10" stroke-linecap="square" />
<path d="M22 12H23" stroke="white" stroke-width="2" stroke-miterlimit="10" stroke-linecap="square" />
<path d="M1 12H14" stroke="white" stroke-width="2" stroke-miterlimit="10" stroke-linecap="square" />
<path d="M18 9H14V15H18V9Z" stroke="white" stroke-width="2" stroke-miterlimit="10" stroke-linecap="square" />
<path d="M12 20H23" stroke="white" stroke-width="2" stroke-miterlimit="10" stroke-linecap="square" />
<path d="M1 20H4" stroke="white" stroke-width="2" stroke-miterlimit="10" stroke-linecap="square" />
<path d="M8 17H4V23H8V17Z" stroke="white" stroke-width="2" stroke-miterlimit="10" stroke-linecap="square" />
</symbol><symbol viewBox="0 0 16 16" fill="none" id="profile-blue">
<path d="M8 7C9.933 7 11.5 5.433 11.5 3.5C11.5 1.567 9.933 0 8 0C6.067 0 4.5 1.567 4.5 3.5C4.5 5.433 6.067 7 8 7Z" fill="#1E40B6" />
<path d="M8 8.5C6.14413 8.50212 4.36489 9.2403 3.05259 10.5526C1.7403 11.8649 1.00212 13.6441 1 15.5C1 15.6326 1.05268 15.7598 1.14645 15.8536C1.24021 15.9473 1.36739 16 1.5 16H14.5C14.6326 16 14.7598 15.9473 14.8536 15.8536C14.9473 15.7598 15 15.6326 15 15.5C14.9979 13.6441 14.2597 11.8649 12.9474 10.5526C11.6351 9.2403 9.85587 8.50212 8 8.5Z" fill="#1E40B6" />
</symbol><symbol viewBox="0 0 24 24" fill="none" id="speech-bubble">
<path d="M1 21H2C3.1 21 4 20.1 4 19V18L1.8 16.8C1.1 16.4 1.1 15.4 1.8 15L4 14V12L6.3 11.4C7.1 11.2 7.3 10.3 6.8 9.7L4 7V2" stroke="#212121" stroke-width="2" stroke-miterlimit="10" stroke-linecap="square" />
<path d="M8 16L11 12V6C11 4.9 11.9 4 13 4H21C22.1 4 23 4.9 23 6V14C23 15.1 22.1 16 21 16H14H8Z" stroke="#212121" stroke-width="2" stroke-miterlimit="10" stroke-linecap="square" />
<path d="M15 8H19" stroke="#212121" stroke-width="2" stroke-miterlimit="10" stroke-linecap="square" />
<path d="M15 12H17" stroke="#212121" stroke-width="2" stroke-miterlimit="10" stroke-linecap="square" />
</symbol><symbol viewBox="0 0 26 28" id="twitter"><path d="M25.312 6.375a10.85 10.85 0 01-2.531 2.609c.016.219.016.438.016.656 0 6.672-5.078 14.359-14.359 14.359-2.859 0-5.516-.828-7.75-2.266.406.047.797.063 1.219.063 2.359 0 4.531-.797 6.266-2.156a5.056 5.056 0 01-4.719-3.5c.313.047.625.078.953.078.453 0 .906-.063 1.328-.172a5.048 5.048 0 01-4.047-4.953v-.063a5.093 5.093 0 002.281.641 5.044 5.044 0 01-2.25-4.203c0-.938.25-1.797.688-2.547a14.344 14.344 0 0010.406 5.281 5.708 5.708 0 01-.125-1.156 5.045 5.045 0 015.047-5.047 5.03 5.03 0 013.687 1.594 9.943 9.943 0 003.203-1.219 5.032 5.032 0 01-2.219 2.781c1.016-.109 2-.391 2.906-.781z" /></symbol><symbol viewBox="0 0 20 20" fill="none" id="uEA01-door">
<g clip-path="url(#uEA01-door_clip0_985_6346)">
<path d="M7.5 10H17.5" stroke="#325DF4" stroke-width="2" stroke-miterlimit="10" />
<path d="M14.1667 13.3333L17.5001 9.99996L14.1667 6.66663" stroke="#325DF4" stroke-width="2" stroke-miterlimit="10" stroke-linecap="square" />
<path d="M15.8334 3.33331V0.833313H4.16675V19.1666H15.8334V16.6666" stroke="#325DF4" stroke-width="2" stroke-miterlimit="10" stroke-linecap="square" />
</g>
<defs>

</defs>
</symbol><clipPath id="uEA01-door_clip0_985_6346">
<rect width="20" height="20" fill="white" />
</clipPath><symbol viewBox="0 0 16 16" fill="none" id="uEA02-profile-blue">
<path d="M8 7C9.933 7 11.5 5.433 11.5 3.5C11.5 1.567 9.933 0 8 0C6.067 0 4.5 1.567 4.5 3.5C4.5 5.433 6.067 7 8 7Z" fill="#1E40B6" />
<path d="M8 8.5C6.14413 8.50212 4.36489 9.2403 3.05259 10.5526C1.7403 11.8649 1.00212 13.6441 1 15.5C1 15.6326 1.05268 15.7598 1.14645 15.8536C1.24021 15.9473 1.36739 16 1.5 16H14.5C14.6326 16 14.7598 15.9473 14.8536 15.8536C14.9473 15.7598 15 15.6326 15 15.5C14.9979 13.6441 14.2597 11.8649 12.9474 10.5526C11.6351 9.2403 9.85587 8.50212 8 8.5Z" fill="#1E40B6" />
</symbol><symbol viewBox="0 0 20 20" fill="none" id="uEA03-cogwheel">
<g clip-path="url(#uEA03-cogwheel_clip0_985_6343)">
<path d="M10 12.5C11.3807 12.5 12.5 11.3807 12.5 10C12.5 8.61929 11.3807 7.5 10 7.5C8.61929 7.5 7.5 8.61929 7.5 10C7.5 11.3807 8.61929 12.5 10 12.5Z" stroke="#325DF4" stroke-width="2" stroke-miterlimit="10" stroke-linecap="square" />
<path d="M16.6666 9.99998C16.6656 9.51991 16.6131 9.04133 16.5099 8.57248L18.7716 6.85998L17.1049 3.97331L14.4858 5.07831C13.7765 4.42806 12.9347 3.93933 12.0183 3.64581L11.6666 0.833313H8.33327L7.98161 3.64581C7.06523 3.93933 6.22339 4.42806 5.51411 5.07831L2.89494 3.97331L1.22827 6.85998L3.48994 8.57248C3.2811 9.51269 3.2811 10.4873 3.48994 11.4275L1.22827 13.14L2.89494 16.0266L5.51411 14.9216C6.22339 15.5719 7.06523 16.0606 7.98161 16.3541L8.33327 19.1666H11.6666L12.0183 16.3541C12.9347 16.0606 13.7765 15.5719 14.4858 14.9216L17.1049 16.0266L18.7716 13.14L16.5099 11.4275C16.6131 10.9586 16.6656 10.48 16.6666 9.99998V9.99998Z" stroke="#325DF4" stroke-width="2" stroke-miterlimit="10" stroke-linecap="square" />
</g>
<defs>

</defs>
</symbol><clipPath id="uEA03-cogwheel_clip0_985_6343">
<rect width="20" height="20" fill="white" />
</clipPath><symbol viewBox="0 0 16 16" fill="none" id="uEA04-lock 2">
<path d="M12 6H10V4C10 3.46957 9.78929 2.96086 9.41421 2.58579C9.03914 2.21071 8.53043 2 8 2C7.46957 2 6.96086 2.21071 6.58579 2.58579C6.21071 2.96086 6 3.46957 6 4V6H4V4C4 2.93913 4.42143 1.92172 5.17157 1.17157C5.92172 0.421427 6.93913 0 8 0C9.06087 0 10.0783 0.421427 10.8284 1.17157C11.5786 1.92172 12 2.93913 12 4V6Z" fill="#636363" />
<path d="M14 7H2C1.73478 7 1.48043 7.10536 1.29289 7.29289C1.10536 7.48043 1 7.73478 1 8V15C1 15.2652 1.10536 15.5196 1.29289 15.7071C1.48043 15.8946 1.73478 16 2 16H14C14.2652 16 14.5196 15.8946 14.7071 15.7071C14.8946 15.5196 15 15.2652 15 15V8C15 7.73478 14.8946 7.48043 14.7071 7.29289C14.5196 7.10536 14.2652 7 14 7ZM8 13C7.60444 13 7.21776 12.8827 6.88886 12.6629C6.55996 12.4432 6.30362 12.1308 6.15224 11.7654C6.00087 11.3999 5.96126 10.9978 6.03843 10.6098C6.1156 10.2219 6.30608 9.86549 6.58579 9.58579C6.86549 9.30608 7.22186 9.1156 7.60982 9.03843C7.99778 8.96126 8.39991 9.00087 8.76537 9.15224C9.13082 9.30362 9.44318 9.55996 9.66294 9.88886C9.8827 10.2178 10 10.6044 10 11C10 11.5304 9.78929 12.0391 9.41421 12.4142C9.03914 12.7893 8.53043 13 8 13Z" fill="#636363" />
</symbol><symbol viewBox="0 0 24 24" fill="none" id="uEA05-arrow-sm-down">
<path d="M16 10L12 14L8 10" stroke="#325DF4" stroke-width="2" stroke-miterlimit="10" stroke-linecap="square" />
</symbol><symbol viewBox="0 0 16 16" fill="none" id="uEA06-magnifier2">
<path d="M12.7 11.3C13.6 10.1 14.1 8.7 14.1 7.1C14.1 3.2 11 0 7.1 0C3.2 0 0 3.2 0 7.1C0 11 3.2 14.2 7.1 14.2C8.7 14.2 10.2 13.7 11.3 12.8L14.3 15.8C14.5 16 14.8 16.1 15 16.1C15.2 16.1 15.5 16 15.7 15.8C16.1 15.4 16.1 14.8 15.7 14.4L12.7 11.3ZM7.1 12.1C4.3 12.1 2 9.9 2 7.1C2 4.3 4.3 2 7.1 2C9.9 2 12.2 4.3 12.2 7.1C12.2 9.9 9.9 12.1 7.1 12.1Z" fill="#AFCEFD" />
</symbol><symbol viewBox="0 0 24 24" fill="none" id="uEA07-chev">
<path d="M16 10L12 14L8 10" stroke="#325DF4" stroke-width="2" stroke-miterlimit="10" stroke-linecap="square" />
</symbol><symbol viewBox="0 0 12 8" fill="none" id="uEA08-Vector">
<path d="M10 2L6 6L2 2" stroke="#325DF4" stroke-width="2" stroke-miterlimit="10" stroke-linecap="square" />
</symbol><symbol viewBox="0 0 24 24" fill="none" id="uEA09-arrow-sm-down 1">
<path d="M16 10L12 14L8 10" stroke="#325DF4" stroke-width="2" stroke-miterlimit="10" stroke-linecap="square" />
</symbol><symbol viewBox="0 0 24 24" fill="none" id="uEA0A-preferences 2">
<path d="M12 4H23" stroke="#325DF4" stroke-width="2" stroke-miterlimit="10" stroke-linecap="square" />
<path d="M1 4H4" stroke="#325DF4" stroke-width="2" stroke-miterlimit="10" stroke-linecap="square" />
<path d="M8 1H4V7H8V1Z" stroke="#325DF4" stroke-width="2" stroke-miterlimit="10" stroke-linecap="square" />
<path d="M22 12H23" stroke="#325DF4" stroke-width="2" stroke-miterlimit="10" stroke-linecap="square" />
<path d="M1 12H14" stroke="#325DF4" stroke-width="2" stroke-miterlimit="10" stroke-linecap="square" />
<path d="M18 9H14V15H18V9Z" stroke="#325DF4" stroke-width="2" stroke-miterlimit="10" stroke-linecap="square" />
<path d="M12 20H23" stroke="#325DF4" stroke-width="2" stroke-miterlimit="10" stroke-linecap="square" />
<path d="M1 20H4" stroke="#325DF4" stroke-width="2" stroke-miterlimit="10" stroke-linecap="square" />
<path d="M8 17H4V23H8V17Z" stroke="#325DF4" stroke-width="2" stroke-miterlimit="10" stroke-linecap="square" />
</symbol><symbol viewBox="0 0 24 24" fill="none" id="uEA0B-chain">
<path d="M3.11055 13.1115L5.52918 10.6929C5.56405 11.1077 5.62948 11.5154 5.7217 11.9142L3.81745 13.8184L3.81721 13.8187C2.96873 14.6683 2.5 15.7993 2.5 17C2.5 18.2007 2.96876 19.3319 3.81845 20.1815C5.52482 21.8889 8.4754 21.8887 10.1826 20.1815L13.1825 17.1826L13.1828 17.1823C14.0314 16.3326 14.5 15.2005 14.5 14C14.5 12.799 14.03 11.6681 13.1818 10.8187L13.1816 10.8184C12.9771 10.614 12.7575 10.4418 12.5334 10.2914C12.5117 10.1931 12.5 10.0966 12.5 9.99999C12.5 9.72155 12.5755 9.45476 12.7169 9.22258C13.1415 9.4632 13.5358 9.75889 13.8884 10.1115C14.9278 11.1509 15.5 12.5298 15.5 14C15.5 15.4701 14.9278 16.8492 13.8891 17.8897L10.8895 20.8884L10.8894 20.8884C9.84916 21.9287 8.47032 22.5 7 22.5C5.52968 22.5 4.15084 21.9287 3.11055 20.8884C2.07131 19.8492 1.5 18.4704 1.5 17C1.5 15.5296 2.07131 14.1508 3.11055 13.1115Z" fill="#325DF4" stroke="#325DF4" />
<path d="M13.1105 3.11161L13.1106 3.11155C14.1508 2.07127 15.5297 1.5 17 1.5C18.4703 1.5 19.8492 2.07127 20.8894 3.11155C21.9287 4.15079 22.5 5.52962 22.5 7C22.5 8.47033 21.9287 9.84917 20.8904 10.8884C20.8904 10.8885 20.8903 10.8885 20.8903 10.8886L18.4704 13.3085C18.435 12.8938 18.3686 12.4866 18.2757 12.0884L20.1826 10.1816L20.1828 10.1813C21.0313 9.33171 21.5 8.20069 21.5 7C21.5 5.79931 21.0313 4.66829 20.1828 3.81868L20.1826 3.81845C19.3328 2.96867 18.2006 2.5 17 2.5C15.7994 2.5 14.6673 2.96865 13.8175 3.81839C13.8175 3.81841 13.8175 3.81843 13.8174 3.81845L10.8175 6.81739L10.8172 6.81768C9.96863 7.66739 9.5 8.79944 9.5 10C9.5 11.201 9.96999 12.3321 10.8194 13.1816C11.0225 13.3846 11.2418 13.5534 11.4651 13.6993C11.4878 13.8 11.5 13.8998 11.5 14C11.5 14.2786 11.4244 14.5455 11.2826 14.7777C10.8578 14.537 10.4633 14.2412 10.1106 13.8884C9.07131 12.8492 8.5 11.4704 8.5 10C8.5 8.52985 9.07217 7.15078 10.1109 6.11024L13.1105 3.11161Z" fill="#325DF4" stroke="#325DF4" />
</symbol><symbol viewBox="0 0 24 24" fill="none" id="uEA0C-external">
<path d="M18 15V22H2V8H7" stroke="#325DF4" stroke-width="2" stroke-miterlimit="10" stroke-linecap="square" />
<path d="M9 16C9 13.3478 10.0536 10.8043 11.9289 8.92893C13.8043 7.05357 16.3478 6 19 6H22" stroke="#325DF4" stroke-width="2" stroke-miterlimit="10" />
<path d="M18 10L22 6L18 2" stroke="#325DF4" stroke-width="2" stroke-miterlimit="10" stroke-linecap="square" />
</symbol><symbol viewBox="0 0 16 12" fill="none" id="uEA0D-check">
<path d="M14.3 0.3L5 9.6L1.7 6.3C1.3 5.9 0.7 5.9 0.3 6.3C-0.1 6.7 -0.1 7.3 0.3 7.7L4.3 11.7C4.5 11.9 4.7 12 5 12C5.3 12 5.5 11.9 5.7 11.7L15.7 1.7C16.1 1.3 16.1 0.7 15.7 0.3C15.3 -0.1 14.7 -0.1 14.3 0.3Z" fill="#325DF4" />
</symbol><symbol viewBox="0 0 32 32" fill="none" id="warning">
<path d="M16 7V19" stroke="#325DF4" stroke-width="2" stroke-miterlimit="10" stroke-linecap="square" />
<path d="M16 26C16.8284 26 17.5 25.3284 17.5 24.5C17.5 23.6716 16.8284 23 16 23C15.1716 23 14.5 23.6716 14.5 24.5C14.5 25.3284 15.1716 26 16 26Z" fill="#325DF4" />
<path d="M22.213 1H9.787L1 9.787V22.213L9.787 31H22.213L31 22.213V9.787L22.213 1Z" stroke="#325DF4" stroke-width="2" stroke-miterlimit="10" stroke-linecap="square" />
</symbol><symbol viewBox="0 0 24 24" fill="none" id="world">
<path d="M5.11 3.42505L6.722 4.75005L8.367 6.50605L7.963 9.24605L5.369 10.558L4 11.726L4.667 12.864L5.974 14.264L6.68 16.737L4.717 18.384L4.358 19.9121" stroke="#325DF4" stroke-width="2" stroke-miterlimit="10" />
<path d="M20.32 4.805L18.843 5.643L15.843 6L13.559 4.162L12.939 2.349L12.127 1" stroke="#325DF4" stroke-width="2" stroke-miterlimit="10" />
<path d="M19.0069 12.903L18.0789 15.001L17.1249 17.152L15.3619 18.793L13.0229 18.943L11.6289 17.253L12.0969 15.083L11.6939 12.94L13.2869 10.943L15.5139 10.161L17.8719 10.725L19.0069 12.903Z" stroke="#325DF4" stroke-width="2" stroke-miterlimit="10" stroke-linecap="square" />
<path d="M12 23C18.0751 23 23 18.0751 23 12C23 5.92487 18.0751 1 12 1C5.92487 1 1 5.92487 1 12C1 18.0751 5.92487 23 12 23Z" stroke="#325DF4" stroke-width="2" stroke-miterlimit="10" stroke-linecap="square" />
</symbol></defs></svg>