<svg xmlns="http://www.w3.org/2000/svg"><symbol id="LOGO-white" fill="none" viewBox="0 0 207 48"><path fill="#edf1fa" d="M55.79 18.5q1.395 0 2.415.465 1.035.465 1.59 1.32t.555 2.025q0 1.155-.555 2.025-.555.855-1.59 1.32-1.02.45-2.415.45h-2.115V29h-2.43V18.5zm-.135 5.625q1.095 0 1.665-.465.57-.48.57-1.35 0-.885-.57-1.35-.57-.48-1.665-.48h-1.98v3.645zm14.44-3.195V29H67.86v-.93q-.87 1.05-2.52 1.05-1.14 0-2.07-.51a3.67 3.67 0 0 1-1.44-1.455q-.525-.945-.525-2.19t.525-2.19 1.44-1.455q.93-.51 2.07-.51 1.545 0 2.415.975v-.855zm-4.35 6.27q.885 0 1.47-.6.585-.615.585-1.635t-.585-1.62q-.585-.615-1.47-.615-.9 0-1.485.615-.585.6-.585 1.62t.585 1.635q.585.6 1.485.6m9.412 1.92q-1.365 0-2.13-.72-.765-.735-.765-2.07v-8.46h2.34v8.325q0 .51.255.795.27.27.75.27.18 0 .36-.045.195-.045.3-.105l.105 1.815q-.585.195-1.215.195m9.993-8.19L81.745 29H79.33l-3.39-8.07h2.415l2.235 5.49 2.31-5.49zm4.8 6.315q.63 0 1.11-.18.495-.195.915-.6l1.245 1.35q-1.14 1.305-3.33 1.305-1.365 0-2.415-.525-1.05-.54-1.62-1.485t-.57-2.145q0-1.185.555-2.13.57-.96 1.545-1.485.99-.54 2.22-.54 1.155 0 2.1.495.945.48 1.5 1.41.57.915.57 2.175l-5.97 1.155q.255.6.795.9.555.3 1.35.3m-.345-4.665q-.885 0-1.44.57t-.585 1.575l3.93-.765a1.76 1.76 0 0 0-.675-1.005q-.51-.375-1.23-.375m8.638 6.54q-1.365 0-2.13-.72-.765-.735-.765-2.07v-8.46h2.34v8.325q0 .51.255.795.27.27.75.27.18 0 .36-.045.195-.045.3-.105l.105 1.815q-.585.195-1.215.195m10.493-8.19V29h-2.22v-.96q-.465.525-1.11.81-.645.27-1.395.27-1.59 0-2.52-.915t-.93-2.715v-4.56h2.34v4.215q0 1.95 1.635 1.95.84 0 1.35-.54.51-.555.51-1.635v-3.99zm12.503-.12q1.515 0 2.4.9.9.885.9 2.67V29h-2.34v-4.26q0-.96-.405-1.425-.39-.48-1.125-.48-.825 0-1.305.54-.48.525-.48 1.575V29h-2.34v-4.26q0-1.905-1.53-1.905-.81 0-1.29.54-.48.525-.48 1.575V29h-2.34v-8.07h2.235v.93q.45-.51 1.095-.78.66-.27 1.44-.27.855 0 1.545.345.69.33 1.11.975.495-.63 1.245-.975a4 4 0 0 1 1.665-.345m13.676.12V29h-2.235v-.93q-.87 1.05-2.52 1.05-1.14 0-2.07-.51a3.67 3.67 0 0 1-1.44-1.455q-.525-.945-.525-2.19t.525-2.19 1.44-1.455q.93-.51 2.07-.51 1.545 0 2.415.975v-.855zm-4.35 6.27q.885 0 1.47-.6.585-.615.585-1.635t-.585-1.62q-.585-.615-1.47-.615-.9 0-1.485.615-.585.6-.585 1.62t.585 1.635q.585.6 1.485.6m11.421-6.39q1.5 0 2.415.9.93.9.93 2.67V29h-2.34v-4.26q0-.96-.42-1.425-.42-.48-1.215-.48-.885 0-1.41.555-.525.54-.525 1.62V29h-2.34v-8.07h2.235v.945q.465-.51 1.155-.78a3.9 3.9 0 0 1 1.515-.285m13.596.12V29h-2.22v-.96q-.465.525-1.11.81-.645.27-1.395.27-1.59 0-2.52-.915t-.93-2.715v-4.56h2.34v4.215q0 1.95 1.635 1.95.84 0 1.35-.54.51-.555.51-1.635v-3.99zm10.358 0V29h-2.235v-.93q-.87 1.05-2.52 1.05-1.14 0-2.07-.51a3.67 3.67 0 0 1-1.44-1.455q-.525-.945-.525-2.19t.525-2.19 1.44-1.455q.93-.51 2.07-.51 1.545 0 2.415.975v-.855zm-4.35 6.27q.885 0 1.47-.6.585-.615.585-1.635t-.585-1.62q-.585-.615-1.47-.615-.9 0-1.485.615-.585.6-.585 1.62t.585 1.635q.585.6 1.485.6m14.706-6.27V29h-2.235v-.93q-.87 1.05-2.52 1.05-1.14 0-2.07-.51a3.67 3.67 0 0 1-1.44-1.455q-.525-.945-.525-2.19t.525-2.19 1.44-1.455q.93-.51 2.07-.51 1.545 0 2.415.975v-.855zm-4.35 6.27q.885 0 1.47-.6.585-.615.585-1.635t-.585-1.62q-.585-.615-1.47-.615-.9 0-1.485.615-.585.6-.585 1.62t.585 1.635q.585.6 1.485.6m9.412 1.92q-1.365 0-2.13-.72-.765-.735-.765-2.07v-8.46h2.34v8.325q0 .51.255.795.27.27.75.27.18 0 .36-.045.195-.045.3-.105l.105 1.815q-.585.195-1.215.195m2.364-8.19h2.34V29h-2.34zm1.17-1.125q-.645 0-1.05-.375t-.405-.93.405-.93 1.05-.375 1.05.36.405.9q0 .585-.405.975-.405.375-1.05.375"/><g clip-path="url(#clip0_184_1374)"><path fill="#9dc5ff" d="M32.32 10.328c1.727-1.503 4.402-1.333 5.44.708a16.898 16.898 0 0 1-12.106 24.3c-2.255.4-4.001-1.633-3.843-3.917.16-2.284 2.237-3.919 4.335-4.836A8.607 8.607 0 0 0 31.07 16.7c-.532-2.227-.478-4.87 1.25-6.372"/><path fill="#edf1fa" d="M34.934 21.976c2.257.604 4.635-.75 4.661-3.086A16.9 16.9 0 0 0 28.65 2.88 16.899 16.899 0 0 0 6.425 23.257c.63 2.25 3.278 2.942 5.302 1.774l.078-.045c1.98-1.144 2.535-3.727 2.46-6.013a8.436 8.436 0 0 1 16.648-2.192c.52 2.228 1.724 4.58 3.933 5.171z"/><path fill="#edf1fa" fill-rule="evenodd" d="M10.023 14.472a4.225 4.225 0 0 1 4.224 4.225v22.532a4.225 4.225 0 1 1-8.45 0V18.697a4.225 4.225 0 0 1 4.226-4.225" clip-rule="evenodd"/></g><defs><clipPath id="clip0_184_1374"><path fill="#fff" d="M0 0h42v48H0z"/></clipPath></defs></symbol><symbol id="animation" fill="none" viewBox="0 0 337 339"><path fill="#1e40b6" d="M101 104h236v235H101z"/><path fill="#7198ff" d="M204 237a102 102 0 0 1-48.9 87.088 101.99 101.99 0 0 1-99.813 3.587 101.998 101.998 0 0 1-12.501-173.727l28.505 39.981a52.9 52.9 0 0 0-22.052 46.868A52.898 52.898 0 0 0 154.897 237z"/><circle cx="301" cy="68" r="36" fill="#ef7e2c"/><path fill="#13276f" d="M162 104 102 0h120z"/></symbol><symbol id="app-services" fill="none" viewBox="0 0 32 32"><path stroke="#325df4" stroke-linecap="square" stroke-miterlimit="10" stroke-width="2" d="M2 16h4v1.5a2.5 2.5 0 0 0 5 0V16h10v-1.5a2.5 2.5 0 0 1 2.5-2.5v0a2.5 2.5 0 0 1 2.5 2.5V16h4"/><path stroke="#325df4" stroke-linecap="square" stroke-miterlimit="10" stroke-width="2" d="M16 30v-4h1.5a2.5 2.5 0 0 0 0-5H16V11h-1.5A2.5 2.5 0 0 1 12 8.5v0A2.5 2.5 0 0 1 14.5 6H16V2"/><path stroke="#325df4" stroke-linecap="square" stroke-miterlimit="10" stroke-width="2" d="M30 2H2v28h28z"/></symbol><symbol id="archive" fill="none" viewBox="0 0 20 20"><g stroke="#325df4" stroke-linecap="round" stroke-linejoin="round" stroke-width="2" clip-path="url(#clip0_1244_34804)"><path d="M1.668 11.667h5v2.5h6.667v-2.5h5"/><path d="M16.668 1.667H3.335c-.92 0-1.667.746-1.667 1.666v13.334c0 .92.746 1.666 1.667 1.666h13.333c.92 0 1.667-.746 1.667-1.666V3.333c0-.92-.747-1.666-1.667-1.666M5.836 5h8.333M5.836 8.333h8.333"/></g><defs><clipPath id="clip0_1244_34804"><path fill="#fff" d="M0 0h20v20H0z"/></clipPath></defs></symbol><symbol id="arrow-left" fill="none" viewBox="0 0 24 24"><path stroke="#325df4" stroke-miterlimit="10" stroke-width="2" d="M23 12H3"/><path stroke="#325df4" stroke-linecap="square" stroke-miterlimit="10" stroke-width="2" d="m10 19-7-7 7-7"/></symbol><symbol id="arrow-right-1" fill="none" viewBox="0 0 41 41"><path stroke="#fff" stroke-miterlimit="10" stroke-width="2" d="M3.4 20.4h34"/><path stroke="#fff" stroke-linecap="square" stroke-miterlimit="10" stroke-width="2" d="m25.5 8.5 11.9 11.9-11.9 11.9"/></symbol><symbol id="arrow-right-2" fill="none" viewBox="0 0 24 24"><path stroke="#325df4" stroke-miterlimit="10" stroke-width="2" d="M2 12h20"/><path stroke="#325df4" stroke-linecap="square" stroke-miterlimit="10" stroke-width="2" d="m15 5 7 7-7 7"/></symbol><symbol id="arrow-right-short" fill="none" viewBox="0 0 16 16"><path fill="#325df4" d="M8 0 6.59 1.41 12.17 7H0v2h12.17l-5.58 5.59L8 16l8-8z"/></symbol><symbol id="arrow-right" fill="none" viewBox="0 0 24 24"><path stroke="#fff" stroke-miterlimit="10" stroke-width="2" d="M2 12h20"/><path stroke="#fff" stroke-linecap="square" stroke-miterlimit="10" stroke-width="2" d="m15 5 7 7-7 7"/></symbol><symbol id="arrow-sm-down-black" fill="none" viewBox="0 0 24 24"><path stroke="#000" stroke-linecap="square" stroke-miterlimit="10" stroke-width="2" d="m16 10-4 4-4-4"/></symbol><symbol id="arrow-sm-down-dark-blue" fill="none" viewBox="0 0 24 24"><path stroke="#1e40b6" stroke-linecap="square" stroke-miterlimit="10" stroke-width="2" d="m16 10-4 4-4-4"/></symbol><symbol id="arrow-sm-down-light-blue" fill="none" viewBox="0 0 24 24"><path stroke="#7198ff" stroke-linecap="square" stroke-miterlimit="10" stroke-width="2" d="m16 10-4 4-4-4"/></symbol><symbol id="arrow-sm-down-white" fill="none" viewBox="0 0 24 24"><path stroke="#fff" stroke-linecap="square" stroke-miterlimit="10" stroke-width="2" d="m16 10-4 4-4-4"/></symbol><symbol id="arrow-sm-down" fill="none" viewBox="0 0 24 24"><path stroke="#325df4" stroke-linecap="square" stroke-miterlimit="10" stroke-width="2" d="m16 10-4 4-4-4"/></symbol><symbol id="bookhouse" fill="none" viewBox="0 0 48 48"><path stroke="#13276f" stroke-miterlimit="10" stroke-width="3" d="m2.5 21.5 22-18 22 18"/><path stroke="#13276f" stroke-linecap="square" stroke-miterlimit="10" stroke-width="3" d="M7.5 24.5v21h34v-21"/><path stroke="#325df4" stroke-miterlimit="10" stroke-width="3" d="m33.5 38.5-5.757-5.757"/><path stroke="#325df4" stroke-linecap="square" stroke-miterlimit="10" stroke-width="3" d="M23.5 34.5a6 6 0 1 0 0-12 6 6 0 0 0 0 12Z"/></symbol><symbol id="c-question" fill="none" viewBox="0 0 24 24"><path stroke="#325df4" stroke-linecap="square" stroke-miterlimit="10" stroke-width="2" d="M12 23c6.075 0 11-4.925 11-11S18.075 1 12 1 1 5.925 1 12s4.925 11 11 11Z"/><path fill="#325df4" d="M12 19a1 1 0 1 0 0-2 1 1 0 0 0 0 2"/><path stroke="#325df4" stroke-linecap="square" stroke-miterlimit="10" stroke-width="2" d="M9.853 6.56c1.98-.875 4.542-.771 5.417.645s.27 3.063-1.23 4.334S12 13.5 12 14.5"/></symbol><symbol id="calendar-dark-blue" fill="none" viewBox="0 0 24 23"><g id="Group"><path id="Vector" stroke="#13276f" stroke-linecap="square" stroke-miterlimit="10" stroke-width="2" d="M7 12H5v1h2z"/><path id="Vector_2" stroke="#13276f" stroke-linecap="square" stroke-miterlimit="10" stroke-width="2" d="M13 12h-2v1h2z"/><path id="Vector_3" stroke="#13276f" stroke-linecap="square" stroke-miterlimit="10" stroke-width="2" d="M7 17H5v1h2z"/><path id="Vector_4" stroke="#13276f" stroke-linecap="square" stroke-miterlimit="10" stroke-width="2" d="M13 17h-2v1h2z"/><path id="Vector_5" stroke="#13276f" stroke-linecap="square" stroke-miterlimit="10" stroke-width="2" d="M19 12h-2v1h2z"/><path id="Vector_6" fill="#13276f" d="M7 12H5v1h2z"/><path id="Vector_7" fill="#13276f" d="M13 12h-2v1h2z"/><path id="Vector_8" fill="#13276f" d="M7 17H5v1h2z"/><path id="Vector_9" fill="#13276f" d="M13 17h-2v1h2z"/><path id="Vector_10" fill="#13276f" d="M19 12h-2v1h2z"/><path id="Vector_11" stroke="#13276f" stroke-linecap="square" stroke-miterlimit="10" stroke-width="2" d="M21 3H3a2 2 0 0 0-2 2v15a2 2 0 0 0 2 2h18a2 2 0 0 0 2-2V5a2 2 0 0 0-2-2Z"/><path id="Vector_12" stroke="#13276f" stroke-linecap="square" stroke-miterlimit="10" stroke-width="2" d="M6 1v3"/><path id="Vector_13" stroke="#13276f" stroke-linecap="square" stroke-miterlimit="10" stroke-width="2" d="M18 1v3"/><path id="Vector_14" stroke="#13276f" stroke-linecap="square" stroke-miterlimit="10" stroke-width="2" d="M1 8h22"/></g></symbol><symbol id="calendar" fill="none" viewBox="0 0 24 24"><path stroke="#212121" stroke-linecap="square" stroke-miterlimit="10" stroke-width="2" d="M7 12H5v1h2zM13 12h-2v1h2zM7 17H5v1h2zM13 17h-2v1h2zM19 12h-2v1h2z"/><path fill="#212121" d="M7 12H5v1h2zM13 12h-2v1h2zM7 17H5v1h2zM13 17h-2v1h2zM19 12h-2v1h2z"/><path stroke="#212121" stroke-linecap="square" stroke-miterlimit="10" stroke-width="2" d="M21 3H3a2 2 0 0 0-2 2v15a2 2 0 0 0 2 2h18a2 2 0 0 0 2-2V5a2 2 0 0 0-2-2ZM6 1v3M18 1v3M1 8h22"/></symbol><symbol id="chain" fill="none" viewBox="0 0 24 24"><path fill="#325df4" stroke="#325df4" d="m3.11 13.112 2.42-2.42q.053.624.192 1.222l-1.905 1.904A4.48 4.48 0 0 0 2.5 17c0 1.2.469 2.332 1.318 3.182 1.707 1.707 4.657 1.707 6.365 0l3-3A4.48 4.48 0 0 0 14.5 14c0-1.201-.47-2.332-1.318-3.181a4.3 4.3 0 0 0-.649-.528A1.4 1.4 0 0 1 12.5 10c0-.278.075-.545.217-.777A5.46 5.46 0 0 1 15.5 14c0 1.47-.572 2.85-1.61 3.89l-3 2.998A5.46 5.46 0 0 1 7 22.5a5.46 5.46 0 0 1-3.89-1.612A5.46 5.46 0 0 1 1.5 17c0-1.47.571-2.85 1.61-3.889Z"/><path fill="#325df4" stroke="#325df4" d="M13.11 3.112A5.46 5.46 0 0 1 17 1.5c1.47 0 2.85.571 3.89 1.612A5.46 5.46 0 0 1 22.5 7c0 1.47-.571 2.85-1.61 3.888l-2.42 2.42a8.6 8.6 0 0 0-.194-1.22l1.907-1.906A4.48 4.48 0 0 0 21.5 7c0-1.2-.469-2.332-1.317-3.181A4.47 4.47 0 0 0 17 2.5c-1.2 0-2.333.469-3.182 1.318l-3 3A4.48 4.48 0 0 0 9.5 10c0 1.201.47 2.332 1.32 3.182.203.203.422.371.645.517q.035.15.035.301c0 .279-.076.546-.217.778a5.5 5.5 0 0 1-1.172-.89A5.46 5.46 0 0 1 8.5 10c0-1.47.572-2.85 1.61-3.89z"/></symbol><symbol id="check-black" fill="none" viewBox="0 0 16 12"><path fill="#212121" d="M6 11.207a1 1 0 0 1-.707-.293L.586 6.207 2 4.793l4 4 8-8 1.414 1.414-8.707 8.707a1 1 0 0 1-.707.293"/></symbol><symbol id="check-white" fill="none" viewBox="0 0 16 12"><path fill="#fff" d="M14.3.3 5 9.6 1.7 6.3c-.4-.4-1-.4-1.4 0s-.4 1 0 1.4l4 4c.2.2.4.3.7.3s.5-.1.7-.3l10-10c.4-.4.4-1 0-1.4s-1-.4-1.4 0"/></symbol><symbol id="check" fill="none" viewBox="0 0 16 12"><path fill="#325df4" d="M14.3.3 5 9.6 1.7 6.3c-.4-.4-1-.4-1.4 0s-.4 1 0 1.4l4 4c.2.2.4.3.7.3s.5-.1.7-.3l10-10c.4-.4.4-1 0-1.4s-1-.4-1.4 0"/></symbol><symbol id="checklist" fill="none" viewBox="0 0 48 48"><path stroke="#13276f" stroke-linecap="square" stroke-miterlimit="10" stroke-width="3" d="M19.5 4.5h-15v15h15zM44.5 29.5h-15v15h15zM19.5 29.5h-15v15h15z"/><path stroke="#325df4" stroke-linecap="square" stroke-miterlimit="10" stroke-width="3" d="m28.5 11.5 6 6 11-13"/></symbol><symbol id="checklist2-selected" fill="none" viewBox="0 0 24 24"><g id="todo 1"><g id="Group" stroke="#7198ff" stroke-linecap="round" stroke-linejoin="round" stroke-width="2"><path id="Vector" d="M17 2h5v21H2V2h5"/><path id="Vector_2" d="m9 15 2 2 4-4"/><path id="Vector_3" d="M7 1v6h3a2 2 0 1 1 4 0h3V1z"/></g></g></symbol><symbol id="checklist2" fill="none" viewBox="0 0 24 24"><g id="todo 1"><g id="Group" stroke="#325df4" stroke-linecap="round" stroke-linejoin="round" stroke-width="2"><path id="Vector" d="M17 2h5v21H2V2h5"/><path id="Vector_2" d="m9 15 2 2 4-4"/><path id="Vector_3" d="M7 1v6h3a2 2 0 1 1 4 0h3V1z"/></g></g></symbol><symbol id="close" fill="none" viewBox="0 0 24 24"><path stroke="#325df4" stroke-linecap="square" stroke-miterlimit="10" stroke-width="2" d="M19 5 5 19M19 19 5 5"/></symbol><symbol id="cogwheel" fill="none" viewBox="0 0 20 20"><g stroke="#325df4" stroke-linecap="square" stroke-miterlimit="10" stroke-width="2" clip-path="url(#clip0_985_6343)"><path d="M10 12.5a2.5 2.5 0 1 0 0-5 2.5 2.5 0 0 0 0 5Z"/><path d="M16.667 10a6.7 6.7 0 0 0-.157-1.428l2.262-1.712-1.667-2.887-2.62 1.105a6.66 6.66 0 0 0-2.467-1.432L11.667.833H8.333l-.351 2.813a6.66 6.66 0 0 0-2.468 1.432l-2.62-1.105L1.229 6.86 3.49 8.572a6.6 6.6 0 0 0 0 2.856L1.228 13.14l1.667 2.887 2.62-1.105a6.66 6.66 0 0 0 2.467 1.432l.351 2.813h3.334l.351-2.813a6.66 6.66 0 0 0 2.468-1.432l2.619 1.105 1.667-2.887-2.262-1.713c.103-.468.156-.947.157-1.427z"/></g><defs><clipPath id="clip0_985_6343"><path fill="#fff" d="M0 0h20v20H0z"/></clipPath></defs></symbol><symbol id="contact-list-selected" fill="none" viewBox="0 0 24 24"><g id="contact-list 1"><g id="Group" stroke="#7198ff" stroke-linecap="round" stroke-linejoin="round" stroke-width="2"><path id="Vector" d="M8 10a4 4 0 1 0 0-8 4 4 0 0 0 0 8"/><path id="Vector_2" d="M23 5h-7"/><path id="Vector_3" d="M23 10h-7"/><path id="Vector_4" d="M23 15h-5"/><path id="Vector_5" d="M8 14a7 7 0 0 0-7 7v1h14v-1a7 7 0 0 0-7-7"/></g></g></symbol><symbol id="contact-list" fill="none" viewBox="0 0 24 24"><g id="contact-list 1"><g id="Group" stroke="#325df4" stroke-linecap="round" stroke-linejoin="round" stroke-width="2"><path id="Vector" d="M8 10a4 4 0 1 0 0-8 4 4 0 0 0 0 8"/><path id="Vector_2" d="M23 5h-7"/><path id="Vector_3" d="M23 10h-7"/><path id="Vector_4" d="M23 15h-5"/><path id="Vector_5" d="M8 14a7 7 0 0 0-7 7v1h14v-1a7 7 0 0 0-7-7"/></g></g></symbol><symbol id="uEA01-door" fill="none" viewBox="0 0 20 20"><g stroke="#325df4" stroke-miterlimit="10" stroke-width="2" clip-path="url(#clip0_985_6346)"><path d="M7.5 10h10"/><path stroke-linecap="square" d="M14.167 13.333 17.5 10l-3.333-3.333"/><path stroke-linecap="square" d="M15.833 3.333v-2.5H4.167v18.334h11.666v-2.5"/></g><defs><clipPath id="clip0_985_6346"><path fill="#fff" d="M0 0h20v20H0z"/></clipPath></defs></symbol><symbol id="uEA02-profile-blue" fill="none" viewBox="0 0 16 16"><path fill="#1e40b6" d="M8 7a3.5 3.5 0 1 0 0-7 3.5 3.5 0 0 0 0 7M8 8.5a7.01 7.01 0 0 0-7 7 .5.5 0 0 0 .5.5h13a.5.5 0 0 0 .5-.5 7.01 7.01 0 0 0-7-7"/></symbol><symbol id="uEA03-cogwheel" fill="none" viewBox="0 0 20 20"><g stroke="#325df4" stroke-linecap="square" stroke-miterlimit="10" stroke-width="2" clip-path="url(#clip0_985_6343)"><path d="M10 12.5a2.5 2.5 0 1 0 0-5 2.5 2.5 0 0 0 0 5Z"/><path d="M16.667 10a6.7 6.7 0 0 0-.157-1.428l2.262-1.712-1.667-2.887-2.62 1.105a6.66 6.66 0 0 0-2.467-1.432L11.667.833H8.333l-.351 2.813a6.66 6.66 0 0 0-2.468 1.432l-2.62-1.105L1.229 6.86 3.49 8.572a6.6 6.6 0 0 0 0 2.856L1.228 13.14l1.667 2.887 2.62-1.105a6.66 6.66 0 0 0 2.467 1.432l.351 2.813h3.334l.351-2.813a6.66 6.66 0 0 0 2.468-1.432l2.619 1.105 1.667-2.887-2.262-1.713c.103-.468.156-.947.157-1.427z"/></g><defs><clipPath id="clip0_985_6343"><path fill="#fff" d="M0 0h20v20H0z"/></clipPath></defs></symbol><symbol id="uEA04-lock2" fill="none" viewBox="0 0 16 16"><path fill="#636363" d="M12 6h-2V4a2 2 0 1 0-4 0v2H4V4a4 4 0 0 1 8 0zM14 7H2a1 1 0 0 0-1 1v7a1 1 0 0 0 1 1h12a1 1 0 0 0 1-1V8a1 1 0 0 0-1-1m-6 6a2 2 0 1 1 0-4 2 2 0 0 1 0 4"/></symbol><symbol id="uEA05-arrow-sm-down" fill="none" viewBox="0 0 24 24"><path stroke="#325df4" stroke-linecap="square" stroke-miterlimit="10" stroke-width="2" d="m16 10-4 4-4-4"/></symbol><symbol id="uEA06-magnifier2" fill="none" viewBox="0 0 16 16"><path fill="#afcefd" d="M12.7 11.3c.9-1.2 1.4-2.6 1.4-4.2 0-3.9-3.1-7.1-7-7.1S0 3.2 0 7.1s3.2 7.1 7.1 7.1c1.6 0 3.1-.5 4.2-1.4l3 3c.2.2.5.3.7.3s.5-.1.7-.3c.4-.4.4-1 0-1.4zm-5.6.8c-2.8 0-5.1-2.2-5.1-5S4.3 2 7.1 2s5.1 2.3 5.1 5.1-2.3 5-5.1 5"/></symbol><symbol id="uEA07-chev" fill="none" viewBox="0 0 24 24"><path stroke="#325df4" stroke-linecap="square" stroke-miterlimit="10" stroke-width="2" d="m16 10-4 4-4-4"/></symbol><symbol id="uEA08-Vector" fill="none" viewBox="0 0 12 8"><path stroke="#325df4" stroke-linecap="square" stroke-miterlimit="10" stroke-width="2" d="M10 2 6 6 2 2"/></symbol><symbol id="uEA09-arrow-sm-down1" fill="none" viewBox="0 0 24 24"><path stroke="#325df4" stroke-linecap="square" stroke-miterlimit="10" stroke-width="2" d="m16 10-4 4-4-4"/></symbol><symbol id="uEA0A-preferences2" fill="none" viewBox="0 0 24 24"><path stroke="#325df4" stroke-linecap="square" stroke-miterlimit="10" stroke-width="2" d="M12 4h11M1 4h3M8 1H4v6h4zM22 12h1M1 12h13M18 9h-4v6h4zM12 20h11M1 20h3M8 17H4v6h4z"/></symbol><symbol id="uEA0B-chain" fill="none" viewBox="0 0 24 24"><path fill="#325df4" stroke="#325df4" d="m3.11 13.112 2.42-2.42q.053.624.192 1.222l-1.905 1.904A4.48 4.48 0 0 0 2.5 17c0 1.2.469 2.332 1.318 3.182 1.707 1.707 4.657 1.707 6.365 0l3-3A4.48 4.48 0 0 0 14.5 14c0-1.201-.47-2.332-1.318-3.181a4.3 4.3 0 0 0-.649-.528A1.4 1.4 0 0 1 12.5 10c0-.278.075-.545.217-.777A5.46 5.46 0 0 1 15.5 14c0 1.47-.572 2.85-1.61 3.89l-3 2.998A5.46 5.46 0 0 1 7 22.5a5.46 5.46 0 0 1-3.89-1.612A5.46 5.46 0 0 1 1.5 17c0-1.47.571-2.85 1.61-3.889Z"/><path fill="#325df4" stroke="#325df4" d="M13.11 3.112A5.46 5.46 0 0 1 17 1.5c1.47 0 2.85.571 3.89 1.612A5.46 5.46 0 0 1 22.5 7c0 1.47-.571 2.85-1.61 3.888l-2.42 2.42a8.6 8.6 0 0 0-.194-1.22l1.907-1.906A4.48 4.48 0 0 0 21.5 7c0-1.2-.469-2.332-1.317-3.181A4.47 4.47 0 0 0 17 2.5c-1.2 0-2.333.469-3.182 1.318l-3 3A4.48 4.48 0 0 0 9.5 10c0 1.201.47 2.332 1.32 3.182.203.203.422.371.645.517q.035.15.035.301c0 .279-.076.546-.217.778a5.5 5.5 0 0 1-1.172-.89A5.46 5.46 0 0 1 8.5 10c0-1.47.572-2.85 1.61-3.89z"/></symbol><symbol id="uEA0C-external" fill="none" viewBox="0 0 24 24"><path stroke="#325df4" stroke-linecap="square" stroke-miterlimit="10" stroke-width="2" d="M18 15v7H2V8h5"/><path stroke="#325df4" stroke-miterlimit="10" stroke-width="2" d="M9 16A10 10 0 0 1 19 6h3"/><path stroke="#325df4" stroke-linecap="square" stroke-miterlimit="10" stroke-width="2" d="m18 10 4-4-4-4"/></symbol><symbol id="uEA0D-check" fill="none" viewBox="0 0 16 12"><path fill="#325df4" d="M14.3.3 5 9.6 1.7 6.3c-.4-.4-1-.4-1.4 0s-.4 1 0 1.4l4 4c.2.2.4.3.7.3s.5-.1.7-.3l10-10c.4-.4.4-1 0-1.4s-1-.4-1.4 0"/></symbol><symbol id="uEA0E-heart" fill="none" viewBox="0 0 24 22"><path stroke="#325df4" stroke-linecap="square" stroke-miterlimit="10" stroke-width="2" d="M21.243 2.757a6 6 0 0 0-9.242.927 6 6 0 1 0-9.242 7.558L12 20.485l9.243-9.243a6 6 0 0 0 0-8.485Z"/></symbol><symbol id="uEA0F-heart-minus" fill="none" viewBox="0 0 24 22"><path stroke="#325df4" stroke-linecap="square" stroke-miterlimit="10" stroke-width="2" d="m21 11.485.243-.243a6 6 0 1 0-9.242-7.558 6 6 0 1 0-9.242 7.558L12 20.485M14 16h6"/></symbol><symbol id="uEA10-viewmode" fill="none" viewBox="0 0 24 24"><path stroke="#fff" stroke-linecap="square" stroke-miterlimit="10" stroke-width="2" d="M7 13H1V1h12v6M23 11H11v12h12zM17 2a5 5 0 0 1 5 5M7 22a5 5 0 0 1-5-5"/></symbol><symbol id="uEA11-arrow-left" fill="none" viewBox="0 0 24 24"><path stroke="#325df4" stroke-miterlimit="10" stroke-width="2" d="M23 12H3"/><path stroke="#325df4" stroke-linecap="square" stroke-miterlimit="10" stroke-width="2" d="m10 19-7-7 7-7"/></symbol><symbol id="uEA12-arrow-right" fill="none" viewBox="0 0 24 24"><path stroke="#fff" stroke-miterlimit="10" stroke-width="2" d="M2 12h20"/><path stroke="#fff" stroke-linecap="square" stroke-miterlimit="10" stroke-width="2" d="m15 5 7 7-7 7"/></symbol><symbol id="copy" fill="none" viewBox="0 0 20 20"><path fill="#325df4" d="M13.335.833h-10c-.917 0-1.667.75-1.667 1.667v11.667h1.667V2.5h10zm2.5 3.334H6.668c-.917 0-1.667.75-1.667 1.666V17.5c0 .917.75 1.667 1.667 1.667h9.167c.916 0 1.666-.75 1.666-1.667V5.833c0-.916-.75-1.666-1.666-1.666m0 13.333H6.668V5.833h9.167z"/></symbol><symbol id="d-check" fill="none" viewBox="0 0 24 25"><path stroke="#325df4" stroke-linecap="square" stroke-miterlimit="10" stroke-width="2" d="m6 12.594 4 4 8-8"/></symbol><symbol id="document" fill="none" viewBox="0 0 32 32"><path stroke="#325df4" stroke-linecap="square" stroke-miterlimit="10" stroke-width="2" d="M19 30H4V2h14l8 8v7"/><path stroke="#325df4" stroke-miterlimit="10" stroke-width="2" d="M18 2v8h8"/><path stroke="#325df4" stroke-linecap="square" stroke-miterlimit="10" stroke-width="2" d="M26 30v-8M22 26h8"/></symbol><symbol id="door" fill="none" viewBox="0 0 20 20"><g stroke="#325df4" stroke-miterlimit="10" stroke-width="2" clip-path="url(#clip0_985_6346)"><path d="M7.5 10h10"/><path stroke-linecap="square" d="M14.167 13.333 17.5 10l-3.333-3.333"/><path stroke-linecap="square" d="M15.833 3.333v-2.5H4.167v18.334h11.666v-2.5"/></g><defs><clipPath id="clip0_985_6346"><path fill="#fff" d="M0 0h20v20H0z"/></clipPath></defs></symbol><symbol id="dots" fill="none" viewBox="0 0 22 4"><path fill="#325df4" d="M11 4a2 2 0 1 0 0-4 2 2 0 0 0 0 4M2 4a2 2 0 1 0 0-4 2 2 0 0 0 0 4M20 4a2 2 0 1 0 0-4 2 2 0 0 0 0 4"/></symbol><symbol id="download_1" fill="none" viewBox="0 0 24 24"><path stroke="#13276f" stroke-miterlimit="10" stroke-width="2" d="M12 1v16"/><path stroke="#13276f" stroke-linecap="square" stroke-miterlimit="10" stroke-width="2" d="m18 11-6 6-6-6M22 22H2"/></symbol><symbol id="edit" fill="none" viewBox="0 0 20 20"><g stroke="#325df4" stroke-linecap="square" stroke-miterlimit="10" stroke-width="2" clip-path="url(#clip0_1244_34777)"><path d="M1.668 18.333h16.667M7.503 14.167 3.336 15l.833-4.167 8.923-8.922a.83.83 0 0 1 1.178 0l2.155 2.155a.83.83 0 0 1 0 1.178z"/></g><defs><clipPath id="clip0_1244_34777"><path fill="#fff" d="M0 0h20v20H0z"/></clipPath></defs></symbol><symbol id="error" fill="none" viewBox="0 0 32 32"><path stroke="#db3a17" stroke-linecap="square" stroke-miterlimit="10" stroke-width="2" d="M1.657 25.27 13.536 2.816a2.79 2.79 0 0 1 4.933 0L30.348 25.27a2.772 2.772 0 0 1-2.47 4.062H4.122a2.77 2.77 0 0 1-2.466-4.062zM16 10.667v8"/><path fill="#db3a17" d="M16 25.334a2 2 0 1 0 0-4 2 2 0 0 0 0 4"/></symbol><symbol id="exit" fill="none" viewBox="0 0 20 20"><g stroke="#325df4" stroke-miterlimit="10" stroke-width="2" clip-path="url(#clip0_985_6346)"><path d="M7.5 10h10"/><path stroke-linecap="square" d="M14.167 13.333 17.5 10l-3.333-3.333"/><path stroke-linecap="square" d="M15.833 3.333v-2.5H4.167v18.334h11.666v-2.5"/></g><defs><clipPath id="clip0_985_6346"><path fill="#fff" d="M0 0h20v20H0z"/></clipPath></defs></symbol><symbol id="ext" fill="none" viewBox="0 0 24 24"><g stroke="#325df4" stroke-miterlimit="10" stroke-width="2" clip-path="url(#clip0_1939_55036)"><path d="M8 16.485 16.485 8"/><path stroke-linecap="square" d="m11 7.266 6.516-.016-.016 6.516M13.85 19.9h-9.9V10"/></g><defs><clipPath id="clip0_1939_55036"><path fill="#fff" d="M0 0h24v24H0z"/></clipPath></defs></symbol><symbol id="external" fill="none" viewBox="0 0 24 24"><path stroke="#325df4" stroke-linecap="square" stroke-miterlimit="10" stroke-width="2" d="M18 15v7H2V8h5"/><path stroke="#325df4" stroke-miterlimit="10" stroke-width="2" d="M9 16A10 10 0 0 1 19 6h3"/><path stroke="#325df4" stroke-linecap="square" stroke-miterlimit="10" stroke-width="2" d="m18 10 4-4-4-4"/></symbol><symbol id="eye" fill="none" viewBox="0 0 16 16"><g id="eye 1" clip-path="url(#clip0_1521_12853)"><g id="Group" fill="#325df4"><path id="Vector" d="M8 14c4.707 0 7.744-5.284 7.871-5.508a1 1 0 0 0 .001-.98C15.746 7.287 12.732 2 8 2 3.245 2 .251 7.289.126 7.514a1 1 0 0 0 .002.975C.254 8.713 3.27 14 8 14M8 4c2.84 0 5.036 2.835 5.818 4-.784 1.166-2.98 4-5.818 4-2.84 0-5.038-2.838-5.819-4.001C2.958 6.835 5.146 4 8.001 4"/><path id="Vector_2" d="M8 10a2 2 0 1 0 0-4 2 2 0 0 0 0 4"/></g></g><defs><clipPath id="clip0_1521_12853"><path fill="#fff" d="M0 0h16v16H0z"/></clipPath></defs></symbol><symbol id="facebook" viewBox="0 0 264 512"><path d="M76.7 512V283H0v-91h76.7v-71.7C76.7 42.4 124.3 0 193.8 0c33.3 0 61.9 2.5 70.2 3.6V85h-48.2c-37.8 0-45.1 18-45.1 44.3V192H256l-11.7 91h-73.6v229"/></symbol><symbol id="favorite-filled" fill="none" viewBox="0 0 24 24"><path fill="#325df4" stroke="#325df4" stroke-linecap="square" stroke-miterlimit="10" stroke-width="2" d="M21.243 3.757a6 6 0 0 0-9.242.927 6 6 0 1 0-9.242 7.558L12 21.485l9.243-9.243a6 6 0 0 0 0-8.485Z"/></symbol><symbol id="favorite-outline" fill="none" viewBox="0 0 24 24"><path stroke="#325df4" stroke-linecap="square" stroke-miterlimit="10" stroke-width="2" d="M21.243 3.757a6 6 0 0 0-9.242.927 6 6 0 1 0-9.242 7.558L12 21.485l9.243-9.243a6 6 0 0 0 0-8.485Z"/></symbol><symbol id="favorites" fill="none" viewBox="0 0 48 48"><path stroke="#325df4" stroke-linecap="square" stroke-miterlimit="10" stroke-width="3" d="M45.062 30.943c-2.189-2.197-5.843-1.838-7.562.761a4.9 4.9 0 0 0-7.562-.761 4.94 4.94 0 0 0 0 6.967l7.561 7.59 7.563-7.59a4.94 4.94 0 0 0 0-6.967Z"/><path stroke="#13276f" stroke-miterlimit="10" stroke-width="3" d="m10.5 16.5 8-14M38.5 16.5l-8-14"/><path stroke="#13276f" stroke-linecap="square" stroke-miterlimit="10" stroke-width="3" d="M25.5 46.5h-19v-22M46.5 24.5h-44v-8h44z"/></symbol><symbol id="file_1" fill="none" viewBox="0 0 24 24"><g stroke="#13276f" stroke-linecap="square" stroke-miterlimit="10" stroke-width="2" clip-path="url(#clip0_2003_16751)"><path d="M21 1H3v22h18zM7 7h10M7 12h10M7 17h4"/></g><defs><clipPath id="clip0_2003_16751"><path fill="#fff" d="M0 0h24v24H0z"/></clipPath></defs></symbol><symbol id="flag" fill="none" viewBox="0 0 24 24"><path stroke="#325df4" stroke-linecap="square" stroke-miterlimit="10" stroke-width="2" d="M4 1v22M8 16V2l13 6z"/></symbol><symbol id="heart-minus" fill="none" viewBox="0 0 24 22"><path stroke="#325df4" stroke-linecap="square" stroke-miterlimit="10" stroke-width="2" d="m21 11.485.243-.243a6 6 0 1 0-9.242-7.558 6 6 0 1 0-9.242 7.558L12 20.485M14 16h6"/></symbol><symbol id="heart" fill="none" viewBox="0 0 24 22"><path stroke="#325df4" stroke-linecap="square" stroke-miterlimit="10" stroke-width="2" d="M21.243 2.757a6 6 0 0 0-9.242.927 6 6 0 1 0-9.242 7.558L12 20.485l9.243-9.243a6 6 0 0 0 0-8.485Z"/></symbol><symbol id="info" fill="none" viewBox="0 0 32 32"><path stroke="#325df4" stroke-linecap="square" stroke-miterlimit="10" stroke-width="2" d="M16 30.667c8.1 0 14.666-6.567 14.666-14.667S24.1 1.334 16 1.334 1.333 7.9 1.333 16 7.9 30.667 16 30.667ZM16 14.667v8"/><path fill="#325df4" d="M16 10.667A1.333 1.333 0 1 0 16 8a1.333 1.333 0 0 0 0 2.667"/></symbol><symbol id="instagram" viewBox="0 0 448 512"><path d="M224.1 141c-63.6 0-114.9 51.3-114.9 114.9s51.3 114.9 114.9 114.9S339 319.5 339 255.9 287.7 141 224.1 141m0 189.6c-41.1 0-74.7-33.5-74.7-74.7s33.5-74.7 74.7-74.7 74.7 33.5 74.7 74.7-33.6 74.7-74.7 74.7m146.4-194.3c0 14.9-12 26.8-26.8 26.8-14.9 0-26.8-12-26.8-26.8s12-26.8 26.8-26.8 26.8 12 26.8 26.8m76.1 27.2c-1.7-35.9-9.9-67.7-36.2-93.9-26.2-26.2-58-34.4-93.9-36.2-37-2.1-147.9-2.1-184.9 0-35.8 1.7-67.6 9.9-93.9 36.1s-34.4 58-36.2 93.9c-2.1 37-2.1 147.9 0 184.9 1.7 35.9 9.9 67.7 36.2 93.9s58 34.4 93.9 36.2c37 2.1 147.9 2.1 184.9 0 35.9-1.7 67.7-9.9 93.9-36.2 26.2-26.2 34.4-58 36.2-93.9 2.1-37 2.1-147.8 0-184.8M398.8 388c-7.8 19.6-22.9 34.7-42.6 42.6-29.5 11.7-99.5 9-132.1 9s-102.7 2.6-132.1-9c-19.6-7.8-34.7-22.9-42.6-42.6-11.7-29.5-9-99.5-9-132.1s-2.6-102.7 9-132.1c7.8-19.6 22.9-34.7 42.6-42.6 29.5-11.7 99.5-9 132.1-9s102.7-2.6 132.1 9c19.6 7.8 34.7 22.9 42.6 42.6 11.7 29.5 9 99.5 9 132.1s2.7 102.7-9 132.1"/></symbol><symbol id="keyboard-mouse-1" fill="none" viewBox="0 0 24 24"><path stroke="#13276f" stroke-linecap="square" stroke-miterlimit="10" stroke-width="2" d="M11 14H1V2h22v6M4 6h1M9 6h1M14 6h1M19 6h1M4 10h1M9 10h4M19 22a4.01 4.01 0 0 1-4-4v-3a4.01 4.01 0 0 1 4-4 4.01 4.01 0 0 1 4 4v3a4.01 4.01 0 0 1-4 4zM19 15v1"/></symbol><symbol id="lock2" fill="none" viewBox="0 0 16 16"><path fill="#636363" d="M12 6h-2V4a2 2 0 1 0-4 0v2H4V4a4 4 0 0 1 8 0zM14 7H2a1 1 0 0 0-1 1v7a1 1 0 0 0 1 1h12a1 1 0 0 0 1-1V8a1 1 0 0 0-1-1m-6 6a2 2 0 1 1 0-4 2 2 0 0 1 0 4"/></symbol><symbol id="logo-small" fill="none" viewBox="0 0 28 32"><g clip-path="url(#clip0_1256_10063)"><path fill="#9dc5ff" d="M21.545 6.885c1.152-1.002 2.935-.889 3.627.472a11.265 11.265 0 0 1-8.071 16.2c-1.503.267-2.667-1.088-2.561-2.611s1.49-2.613 2.89-3.224a5.73 5.73 0 0 0 2.836-2.699 5.74 5.74 0 0 0 .446-3.89c-.355-1.485-.319-3.246.833-4.248"/><path fill="#325df4" d="M23.288 14.65c1.505.404 3.09-.5 3.108-2.057A11.265 11.265 0 0 0 8.568 3.307a11.27 11.27 0 0 0-4.286 12.197c.42 1.5 2.185 1.962 3.535 1.183l.052-.03c1.32-.762 1.69-2.485 1.64-4.008a5.624 5.624 0 0 1 11.099-1.461c.346 1.484 1.149 3.052 2.622 3.447z"/><path fill="#325df4" fill-rule="evenodd" d="M6.682 9.648a2.817 2.817 0 0 1 2.816 2.817v15.02a2.817 2.817 0 0 1-5.633 0v-15.02a2.817 2.817 0 0 1 2.817-2.817" clip-rule="evenodd"/></g><defs><clipPath id="clip0_1256_10063"><path fill="#fff" d="M0 0h28v32H0z"/></clipPath></defs></symbol><symbol id="magnifier" fill="none" viewBox="0 0 24 24"><path stroke="#325df4" stroke-linecap="square" stroke-miterlimit="10" stroke-width="2" d="m22 22-6.344-6.344M10 18a8 8 0 1 0 0-16 8 8 0 0 0 0 16Z"/></symbol><symbol id="magnifier2" fill="none" viewBox="0 0 16 16"><path fill="#afcefd" d="M12.7 11.3c.9-1.2 1.4-2.6 1.4-4.2 0-3.9-3.1-7.1-7-7.1S0 3.2 0 7.1s3.2 7.1 7.1 7.1c1.6 0 3.1-.5 4.2-1.4l3 3c.2.2.5.3.7.3s.5-.1.7-.3c.4-.4.4-1 0-1.4zm-5.6.8c-2.8 0-5.1-2.2-5.1-5S4.3 2 7.1 2s5.1 2.3 5.1 5.1-2.3 5-5.1 5"/></symbol><symbol id="menu" fill="none" viewBox="0 0 24 24"><path stroke="#325df4" stroke-linecap="square" stroke-miterlimit="10" stroke-width="2" d="M1 12h22M1 5h22M1 19h11"/></symbol><symbol id="minus-blue" fill="none" viewBox="0 0 24 24"><path stroke="#325df4" stroke-linecap="square" stroke-miterlimit="10" stroke-width="2" d="M22 12H2"/></symbol><symbol id="minus" fill="none" viewBox="0 0 24 24"><path stroke="#fff" stroke-linecap="square" stroke-miterlimit="10" stroke-width="2" d="M22 12H2"/></symbol><symbol id="multiple-1" fill="none" viewBox="0 0 24 24"><g stroke="#13276f" stroke-linecap="square" stroke-miterlimit="10" stroke-width="2" clip-path="url(#clip0_6781_42120)"><path d="M4 7a2 2 0 1 1-.001-3.999A2 2 0 0 1 4 7ZM6 21H3v-4H1v-5a2 2 0 0 1 2-2h1M20 7a2 2 0 1 0 .001-3.999A2 2 0 0 0 20 7ZM18 21h3v-4h2v-5a2 2 0 0 0-2-2h-1M12 7a3 3 0 1 1 0-6 3 3 0 0 1 0 6ZM15 23H9v-6H7v-5a2 2 0 0 1 2-2h6a2 2 0 0 1 2 2v6h-2z"/></g><defs><clipPath id="clip0_6781_42120"><path fill="#fff" d="M0 0h24v24H0z"/></clipPath></defs></symbol><symbol id="notice" fill="none" viewBox="0 0 32 32"><g clip-path="url(#clip0_8330_44546)"><path stroke="#325df4" stroke-linecap="square" stroke-miterlimit="10" stroke-width="2" d="M16 30.667c8.1 0 14.667-6.567 14.667-14.667S24.1 1.334 16 1.334 1.333 7.9 1.333 16 7.9 30.667 16 30.667ZM16 14.667v8"/><path fill="#325df4" d="M16 10.667A1.333 1.333 0 1 0 16 8a1.333 1.333 0 0 0 0 2.667"/></g><defs><clipPath id="clip0_8330_44546"><path fill="#fff" d="M0 0h32v32H0z"/></clipPath></defs></symbol><symbol id="padlock-blue" fill="none" viewBox="0 0 24 24"><path stroke="#325df4" stroke-linecap="square" stroke-miterlimit="10" stroke-width="2" d="M19 11H5a2 2 0 0 0-2 2v8a2 2 0 0 0 2 2h14a2 2 0 0 0 2-2v-8a2 2 0 0 0-2-2Z"/><path stroke="#325df4" stroke-linecap="square" stroke-miterlimit="10" stroke-width="2" d="M12 19a2 2 0 1 0 0-4 2 2 0 0 0 0 4ZM17 7V6a4.95 4.95 0 0 0-4.9-5H12a4.95 4.95 0 0 0-5 4.9V7"/></symbol><symbol id="padlock" fill="none" viewBox="0 0 24 24"><path stroke="#fff" stroke-linecap="square" stroke-miterlimit="10" stroke-width="2" d="M19 11H5a2 2 0 0 0-2 2v8a2 2 0 0 0 2 2h14a2 2 0 0 0 2-2v-8a2 2 0 0 0-2-2Z"/><path stroke="#fff" stroke-linecap="square" stroke-miterlimit="10" stroke-width="2" d="M12 19a2 2 0 1 0 0-4 2 2 0 0 0 0 4ZM17 7V6a4.95 4.95 0 0 0-4.9-5H12a4.95 4.95 0 0 0-5 4.9V7"/></symbol><symbol id="parent-1" fill="none" viewBox="0 0 24 24"><g stroke="#13276f" stroke-miterlimit="10" stroke-width="2" clip-path="url(#clip0_4233_30496)"><path d="M13 23h10v-8.8a2 2 0 0 0-1.059-1.765l-4.007-2.15M13.077 10.292l-2.35 1.253"/><path stroke-linecap="square" d="M15.5 11A4.5 4.5 0 0 1 11 6.5v-1a4.5 4.5 0 0 1 9 0v1a4.5 4.5 0 0 1-4.5 4.5Z"/><path d="m4.592 17.195-2.487 1.253A2 2 0 0 0 1 20.236V23h12v-2.764a2 2 0 0 0-1.106-1.789l-2.487-1.253"/><path stroke-linecap="square" d="M7 18a4 4 0 0 1-4-4v-1a4 4 0 0 1 8 0v1a4 4 0 0 1-4 4Z"/></g><defs><clipPath id="clip0_4233_30496"><path fill="#fff" d="M0 0h24v24H0z"/></clipPath></defs></symbol><symbol id="pen" fill="none" viewBox="0 0 32 32"><path stroke="#325df4" stroke-linecap="square" stroke-miterlimit="10" stroke-width="2" d="M4 31h26M20 6l5 5M12 24l-7 2 2-7L24 2l5 5z"/></symbol><symbol id="pin" fill="none" viewBox="0 0 24 24"><path stroke="#13276f" stroke-linecap="square" stroke-miterlimit="10" stroke-width="2" d="M20 9c0 4.9-8 13-8 13S4 13.9 4 9c0-5.1 4.1-8 8-8s8 2.9 8 8Z"/><path stroke="#13276f" stroke-linecap="square" stroke-miterlimit="10" stroke-width="2" d="M12 12a3 3 0 1 0 0-6 3 3 0 0 0 0 6Z"/></symbol><symbol id="plus-blue" fill="none" viewBox="0 0 24 24"><path stroke="#325df4" stroke-linecap="square" stroke-miterlimit="10" stroke-width="2" d="M12 2v20M22 12H2"/></symbol><symbol id="plus" fill="none" viewBox="0 0 24 24"><path stroke="#fff" stroke-linecap="square" stroke-miterlimit="10" stroke-width="2" d="M12 2v20M22 12H2"/></symbol><symbol id="preferences-white" fill="none" viewBox="0 0 24 24"><path stroke="#fff" stroke-linecap="square" stroke-miterlimit="10" stroke-width="2" d="M12 4h11M1 4h3M8 1H4v6h4zM22 12h1M1 12h13M18 9h-4v6h4zM12 20h11M1 20h3M8 17H4v6h4z"/></symbol><symbol id="preferences" fill="none" viewBox="0 0 24 24"><path stroke="#325df4" stroke-linecap="square" stroke-miterlimit="10" stroke-width="2" d="M12 4h11M1 4h3M8 1H4v6h4zM22 12h1M1 12h13M18 9h-4v6h4zM12 20h11M1 20h3M8 17H4v6h4z"/></symbol><symbol id="print" fill="none" viewBox="0 0 24 24"><g stroke="#325df4" stroke-linecap="square" stroke-miterlimit="10" stroke-width="2" clip-path="url(#clip0_3491_26960)"><path d="M5 3V1h14v2M5 18H1V9a2 2 0 0 1 2-2h18a2 2 0 0 1 2 2v9h-4"/><path d="M19 12H5v11h14z"/></g><defs><clipPath id="clip0_3491_26960"><path fill="#fff" d="M0 0h24v24H0z"/></clipPath></defs></symbol><symbol id="profile-blue" fill="none" viewBox="0 0 16 16"><path fill="#1e40b6" d="M8 7a3.5 3.5 0 1 0 0-7 3.5 3.5 0 0 0 0 7M8 8.5a7.01 7.01 0 0 0-7 7 .5.5 0 0 0 .5.5h13a.5.5 0 0 0 .5-.5 7.01 7.01 0 0 0-7-7"/></symbol><symbol id="property-location" fill="none" viewBox="0 0 24 24"><g clip-path="url(#clip0_6776_41915)"><path stroke="#13276f" stroke-linecap="square" stroke-miterlimit="10" stroke-width="2" d="M4 13v10h9"/><path stroke="#13276f" stroke-miterlimit="10" stroke-width="2" d="M20.86 9.249 12 2 1 11"/><path stroke="#13276f" stroke-linecap="square" stroke-miterlimit="10" stroke-width="2" d="M23 15.817C23 18.183 19 22 19 22s-4-3.817-4-6.183A3.87 3.87 0 0 1 19 12a3.87 3.87 0 0 1 4 3.817z"/><path fill="#13276f" d="M19 17a1 1 0 1 0 0-2 1 1 0 0 0 0 2"/></g><defs><clipPath id="clip0_6776_41915"><path fill="#fff" d="M0 0h24v24H0z"/></clipPath></defs></symbol><symbol id="question" fill="none" viewBox="0 0 24 24"><g clip-path="url(#clip0_3648_50689)"><path stroke="#13276f" stroke-linecap="square" stroke-miterlimit="10" stroke-width="2" d="M12 23c6.075 0 11-4.925 11-11S18.075 1 12 1 1 5.925 1 12s4.925 11 11 11Z"/><path fill="#13276f" d="M12 19a1 1 0 1 0 0-2 1 1 0 0 0 0 2"/><path stroke="#13276f" stroke-linecap="square" stroke-miterlimit="10" stroke-width="2" d="M9.852 6.56c1.98-.875 4.542-.771 5.417.645s.27 3.063-1.23 4.334-2.04 1.96-2.04 2.96"/></g><defs><clipPath id="clip0_3648_50689"><path fill="#fff" d="M0 0h24v24H0z"/></clipPath></defs></symbol><symbol id="round-euro-1" fill="none" viewBox="0 0 24 24"><g stroke="#13276f" stroke-linecap="square" stroke-miterlimit="10" stroke-width="2" clip-path="url(#clip0_4233_30511)"><path d="M12 23c6.075 0 11-4.925 11-11S18.075 1 12 1 1 5.925 1 12s4.925 11 11 11Z"/><path d="M16 17.197a6 6 0 1 1-.001-10.395M5 10h7M5 14h7"/></g><defs><clipPath id="clip0_4233_30511"><path fill="#fff" d="M0 0h24v24H0z"/></clipPath></defs></symbol><symbol id="set-outdated" fill="none" viewBox="0 0 20 20"><g stroke="#325df4" stroke-miterlimit="10" stroke-width="2" clip-path="url(#clip0_1244_34823)"><path stroke-linecap="square" d="M5.001 1.667h10L18.335 5v11.667a1.667 1.667 0 0 1-1.667 1.666H3.335a1.667 1.667 0 0 1-1.667-1.666V5z"/><path d="M6.25 11.249h7.5"/><path stroke-linecap="square" d="M9.586 7.917 6.253 11.25l3.333 3.333"/><path d="M1.668 5h16.667"/></g><defs><clipPath id="clip0_1244_34823"><path fill="#fff" d="M0 0h20v20H0z"/></clipPath></defs></symbol><symbol id="sort-2" fill="none" viewBox="0 0 24 24"><path stroke="#325df4" stroke-linecap="square" stroke-miterlimit="10" stroke-width="2" d="M4 9h16M1 3h22M7 15h10M10 21h4"/></symbol><symbol id="speech-bubble-dark-blue" fill="none" viewBox="0 0 24 21"><g id="Group" stroke="#13276f" stroke-linecap="square" stroke-miterlimit="10" stroke-width="2"><path id="Vector" d="M1 20h1c1.1 0 2-.9 2-2v-1l-2.2-1.2c-.7-.4-.7-1.4 0-1.8L4 13v-2l2.3-.6c.8-.2 1-1.1.5-1.7L4 6V1"/><path id="Vector_2" d="m8 15 3-4V5c0-1.1.9-2 2-2h8c1.1 0 2 .9 2 2v8c0 1.1-.9 2-2 2H8Z"/><path id="Vector_3" d="M15 7h4"/><path id="Vector_4" d="M15 11h2"/></g></symbol><symbol id="speech-bubble" fill="none" viewBox="0 0 24 24"><path stroke="#212121" stroke-linecap="square" stroke-miterlimit="10" stroke-width="2" d="M1 21h1c1.1 0 2-.9 2-2v-1l-2.2-1.2c-.7-.4-.7-1.4 0-1.8L4 14v-2l2.3-.6c.8-.2 1-1.1.5-1.7L4 7V2M8 16l3-4V6c0-1.1.9-2 2-2h8c1.1 0 2 .9 2 2v8c0 1.1-.9 2-2 2H8ZM15 8h4M15 12h2"/></symbol><symbol id="star" fill="none" viewBox="0 0 32 32"><g clip-path="url(#clip0_88_224)"><path stroke="#325df4" stroke-linecap="square" stroke-miterlimit="10" stroke-width="2" d="m16 2.685 4.326 8.766L30 12.857l-7 6.823 1.652 9.635L16 24.766l-8.652 4.55L9 19.68l-7-6.823 9.674-1.406z"/></g><defs><clipPath id="clip0_88_224"><path fill="#fff" d="M0 0h32v32H0z"/></clipPath></defs></symbol><symbol id="success" fill="none" viewBox="0 0 32 32"><g stroke="#4e9e0f" stroke-linecap="square" stroke-miterlimit="10" stroke-width="2" clip-path="url(#clip0_8335_44579)"><path d="m9 17 4 4 10-10"/><path d="M16 31c8.284 0 15-6.716 15-15S24.284 1 16 1 1 7.716 1 16s6.716 15 15 15Z"/></g><defs><clipPath id="clip0_8335_44579"><path fill="#fff" d="M0 0h32v32H0z"/></clipPath></defs></symbol><symbol id="switch-file" fill="none" viewBox="0 0 24 24"><g stroke="#325df4" stroke-linecap="square" stroke-miterlimit="10" stroke-width="2" clip-path="url(#clip0_1197_9480)"><path d="M7 13H1V1h12v6M23 11H11v12h12zM17 2a5 5 0 0 1 5 5M7 22a5 5 0 0 1-5-5"/></g><defs><clipPath id="clip0_1197_9480"><path fill="#fff" d="M0 0h24v24H0z"/></clipPath></defs></symbol><symbol id="translate" fill="none" viewBox="0 0 19 17"><path fill="#325df4" d="M9.892 10.892 7.775 8.8l.025-.025a14.6 14.6 0 0 0 3.092-5.442h2.441V1.667H7.5V0H5.833v1.667H0v1.658h9.308a13.1 13.1 0 0 1-2.641 4.467A13 13 0 0 1 4.742 5H3.075a14.6 14.6 0 0 0 2.483 3.8l-4.241 4.183L2.5 14.167 6.667 10l2.591 2.592zm4.691-4.225h-1.666l-3.75 10h1.666l.934-2.5h3.958l.942 2.5h1.666zM12.4 12.5l1.35-3.608L15.1 12.5z"/></symbol><symbol id="trash-1" fill="none" viewBox="0 0 24 24"><g stroke="#325df4" stroke-miterlimit="10" stroke-width="2" clip-path="url(#clip0_3634_27810)"><path stroke-linecap="square" d="M20 9v12a2 2 0 0 1-2 2H6a2 2 0 0 1-2-2V9M1 5h22M12 12v6M8 12v6M16 12v6"/><path d="M8 5V1h8v4"/></g><defs><clipPath id="clip0_3634_27810"><path fill="#fff" d="M0 0h24v24H0z"/></clipPath></defs></symbol><symbol id="trash-can" fill="none" viewBox="0 0 20 20"><g stroke="#325df4" stroke-miterlimit="10" stroke-width="2" clip-path="url(#clip0_1244_34813)"><path stroke-linecap="square" d="m16.665 7.5-.722 10.118a1.667 1.667 0 0 1-1.663 1.549H5.717a1.667 1.667 0 0 1-1.662-1.549L3.332 7.5M.832 4.167h18.333"/><path d="M6.664 4.167V.833h6.667v3.334"/></g><defs><clipPath id="clip0_1244_34813"><path fill="#fff" d="M0 0h20v20H0z"/></clipPath></defs></symbol><symbol id="twitter" viewBox="0 0 26 28"><path d="M25.312 6.375a10.9 10.9 0 0 1-2.531 2.609c.016.219.016.438.016.656 0 6.672-5.078 14.359-14.359 14.359-2.859 0-5.516-.828-7.75-2.266.406.047.797.063 1.219.063 2.359 0 4.531-.797 6.266-2.156a5.06 5.06 0 0 1-4.719-3.5c.313.047.625.078.953.078.453 0 .906-.063 1.328-.172a5.05 5.05 0 0 1-4.047-4.953v-.063a5.1 5.1 0 0 0 2.281.641 5.04 5.04 0 0 1-2.25-4.203c0-.938.25-1.797.688-2.547a14.34 14.34 0 0 0 10.406 5.281 5.7 5.7 0 0 1-.125-1.156 5.045 5.045 0 0 1 5.047-5.047 5.03 5.03 0 0 1 3.687 1.594 10 10 0 0 0 3.203-1.219 5.03 5.03 0 0 1-2.219 2.781c1.016-.109 2-.391 2.906-.781z"/></symbol><symbol id="union" fill="none" viewBox="0 0 4 16"><path fill="#afcefd" fill-rule="evenodd" d="M0 2a2 2 0 1 0 4 0 2 2 0 0 0-4 0m0 6a2 2 0 1 0 4 0 2 2 0 0 0-4 0m2 8a2 2 0 1 1 0-4 2 2 0 0 1 0 4" clip-rule="evenodd"/></symbol><symbol id="user-blue" fill="none" viewBox="0 0 20 20"><g id="user 2" clip-path="url(#clip0_203_8099)"><g id="Group" stroke="#325df4" stroke-linecap="square" stroke-miterlimit="10" stroke-width="2"><path id="Vector" d="M10 8.334a3.75 3.75 0 1 0 0-7.5 3.75 3.75 0 0 0 0 7.5Z"/><path id="Vector_2" d="M10 11.667a7.5 7.5 0 0 0-7.5 7.5h15a7.5 7.5 0 0 0-7.5-7.5Z"/></g></g><defs><clipPath id="clip0_203_8099"><path fill="#fff" d="M0 0h20v20H0z"/></clipPath></defs></symbol><symbol id="user-white" fill="none" viewBox="0 0 20 20"><g id="user 2" clip-path="url(#clip0_203_8099)"><g id="Group" stroke="#fff" stroke-linecap="square" stroke-miterlimit="10" stroke-width="2"><path id="Vector" d="M10 8.334a3.75 3.75 0 1 0 0-7.5 3.75 3.75 0 0 0 0 7.5Z"/><path id="Vector_2" d="M10 11.667a7.5 7.5 0 0 0-7.5 7.5h15a7.5 7.5 0 0 0-7.5-7.5Z"/></g></g><defs><clipPath id="clip0_203_8099"><path fill="#fff" d="M0 0h20v20H0z"/></clipPath></defs></symbol><symbol id="viewmode" fill="none" viewBox="0 0 24 24"><path stroke="#fff" stroke-linecap="square" stroke-miterlimit="10" stroke-width="2" d="M7 13H1V1h12v6M23 11H11v12h12zM17 2a5 5 0 0 1 5 5M7 22a5 5 0 0 1-5-5"/></symbol><symbol id="warning" fill="none" viewBox="0 0 32 32"><path stroke="#325df4" stroke-linecap="square" stroke-miterlimit="10" stroke-width="2" d="M16 7v12"/><path fill="#325df4" d="M16 26a1.5 1.5 0 1 0 0-3 1.5 1.5 0 0 0 0 3"/><path stroke="#325df4" stroke-linecap="square" stroke-miterlimit="10" stroke-width="2" d="M22.213 1H9.787L1 9.787v12.426L9.787 31h12.426L31 22.213V9.787z"/></symbol><symbol id="world" fill="none" viewBox="0 0 24 24"><path stroke="#325df4" stroke-miterlimit="10" stroke-width="2" d="M5.11 3.425 6.722 4.75l1.645 1.756-.404 2.74-2.594 1.312L4 11.726l.667 1.138 1.307 1.4.706 2.473-1.963 1.647-.359 1.528M20.32 4.805l-1.477.838-3 .357-2.284-1.838-.62-1.813L12.127 1"/><path stroke="#325df4" stroke-linecap="square" stroke-miterlimit="10" stroke-width="2" d="m19.007 12.903-.928 2.098-.954 2.151-1.763 1.641-2.34.15-1.393-1.69.468-2.17-.403-2.143 1.593-1.997 2.227-.782 2.358.564z"/><path stroke="#325df4" stroke-linecap="square" stroke-miterlimit="10" stroke-width="2" d="M12 23c6.075 0 11-4.925 11-11S18.075 1 12 1 1 5.925 1 12s4.925 11 11 11Z"/></symbol></svg>