<svg width="42" height="48" viewBox="0 0 42 48" fill="none" xmlns="http://www.w3.org/2000/svg">
<g clip-path="url(#clip0_91_256)">
<path d="M32.3192 10.3275C34.047 8.82475 36.7214 8.99472 37.7595 11.0357C38.6348 12.7566 39.2134 14.624 39.4602 16.5594C39.883 19.8749 39.3131 23.2413 37.8226 26.2329C36.3322 29.2244 33.9881 31.7069 31.0868 33.3662C29.3931 34.3349 27.5539 34.9977 25.653 35.3354C23.3985 35.736 21.652 33.7033 21.8111 31.419C21.9701 29.1347 24.0471 27.5002 26.1451 26.5828C26.4264 26.4598 26.7017 26.3215 26.9699 26.1681C28.4476 25.323 29.6415 24.0587 30.4006 22.535C31.1597 21.0114 31.4499 19.2969 31.2346 17.6083C31.1955 17.3018 31.1401 16.9987 31.0689 16.7001C30.5376 14.4727 30.5915 11.8303 32.3192 10.3275Z" fill="#9DC5FF"/>
<path d="M34.933 21.9756C37.1903 22.5804 39.5682 21.2265 39.5948 18.8897C39.6103 17.5386 39.4636 16.1854 39.1545 14.8596C38.5234 12.1531 37.2346 9.64408 35.4023 7.55468C33.5699 5.46527 31.2506 3.86001 28.6496 2.88109C26.0487 1.90217 23.2465 1.5798 20.4912 1.94254C17.7359 2.30528 15.1126 3.34193 12.8537 4.96067C10.5947 6.5794 8.76985 8.73026 7.5407 11.2227C6.31156 13.7152 5.71608 16.4723 5.807 19.2499C5.85155 20.6106 6.06015 21.9556 6.42473 23.2567C7.05528 25.5069 9.70261 26.1992 11.7264 25.0308L11.8045 24.9857C13.7852 23.8422 14.3399 21.2589 14.2651 18.973C14.2197 17.5864 14.517 16.2099 15.1306 14.9657C15.7442 13.7214 16.6552 12.6476 17.783 11.8395C18.9107 11.0314 20.2203 10.5139 21.5958 10.3328C22.9713 10.1517 24.3702 10.3126 25.6687 10.8013C26.9671 11.29 28.125 12.0914 29.0397 13.1345C29.9545 14.1776 30.5979 15.4301 30.9129 16.7813C31.4323 19.0086 32.6367 21.3603 34.8459 21.9523L34.933 21.9756Z" fill="#325DF4"/>
<path fill-rule="evenodd" clip-rule="evenodd" d="M10.0227 14.4722C12.356 14.4722 14.2475 16.3637 14.2475 18.6969V41.2289C14.2475 43.5622 12.356 45.4537 10.0227 45.4537C7.68946 45.4537 5.79797 43.5622 5.79797 41.2289V18.6969C5.79797 16.3637 7.68946 14.4722 10.0227 14.4722Z" fill="#325DF4"/>
</g>
<defs>
<clipPath id="clip0_91_256">
<rect width="42" height="48" fill="white"/>
</clipPath>
</defs>
</svg>
