<svg width="24" height="24" viewBox="0 0 24 24" fill="none" xmlns="http://www.w3.org/2000/svg">
<path d="M3.11055 13.1115L5.52918 10.6929C5.56405 11.1077 5.62948 11.5154 5.7217 11.9142L3.81745 13.8184L3.81721 13.8187C2.96873 14.6683 2.5 15.7993 2.5 17C2.5 18.2007 2.96876 19.3319 3.81845 20.1815C5.52482 21.8889 8.4754 21.8887 10.1826 20.1815L13.1825 17.1826L13.1828 17.1823C14.0314 16.3326 14.5 15.2005 14.5 14C14.5 12.799 14.03 11.6681 13.1818 10.8187L13.1816 10.8184C12.9771 10.614 12.7575 10.4418 12.5334 10.2914C12.5117 10.1931 12.5 10.0966 12.5 9.99999C12.5 9.72155 12.5755 9.45476 12.7169 9.22258C13.1415 9.4632 13.5358 9.75889 13.8884 10.1115C14.9278 11.1509 15.5 12.5298 15.5 14C15.5 15.4701 14.9278 16.8492 13.8891 17.8897L10.8895 20.8884L10.8894 20.8884C9.84916 21.9287 8.47032 22.5 7 22.5C5.52968 22.5 4.15084 21.9287 3.11055 20.8884C2.07131 19.8492 1.5 18.4704 1.5 17C1.5 15.5296 2.07131 14.1508 3.11055 13.1115Z" fill="#325DF4" stroke="#325DF4"/>
<path d="M13.1105 3.11161L13.1106 3.11155C14.1508 2.07127 15.5297 1.5 17 1.5C18.4703 1.5 19.8492 2.07127 20.8894 3.11155C21.9287 4.15079 22.5 5.52962 22.5 7C22.5 8.47033 21.9287 9.84917 20.8904 10.8884C20.8904 10.8885 20.8903 10.8885 20.8903 10.8886L18.4704 13.3085C18.435 12.8938 18.3686 12.4866 18.2757 12.0884L20.1826 10.1816L20.1828 10.1813C21.0313 9.33171 21.5 8.20069 21.5 7C21.5 5.79931 21.0313 4.66829 20.1828 3.81868L20.1826 3.81845C19.3328 2.96867 18.2006 2.5 17 2.5C15.7994 2.5 14.6673 2.96865 13.8175 3.81839C13.8175 3.81841 13.8175 3.81843 13.8174 3.81845L10.8175 6.81739L10.8172 6.81768C9.96863 7.66739 9.5 8.79944 9.5 10C9.5 11.201 9.96999 12.3321 10.8194 13.1816C11.0225 13.3846 11.2418 13.5534 11.4651 13.6993C11.4878 13.8 11.5 13.8998 11.5 14C11.5 14.2786 11.4244 14.5455 11.2826 14.7777C10.8578 14.537 10.4633 14.2412 10.1106 13.8884C9.07131 12.8492 8.5 11.4704 8.5 10C8.5 8.52985 9.07217 7.15078 10.1109 6.11024L13.1105 3.11161Z" fill="#325DF4" stroke="#325DF4"/>
</svg>
